<mxfile host="app.diagrams.net" agent="Mozilla/5.0 (Windows NT 10.0; Win64; x64) AppleWebKit/537.36 (KHTML, like Gecko) Chrome/128.0.0.0 Safari/537.36 Edg/128.0.0.0" version="24.7.17">
  <diagram id="C5RBs43oDa-KdzZeNtuy" name="Page-1">
    <mxGraphModel dx="3214" dy="2000" grid="1" gridSize="10" guides="1" tooltips="1" connect="1" arrows="1" fold="1" page="0" pageScale="1" pageWidth="827" pageHeight="1169" math="0" shadow="0">
      <root>
        <mxCell id="WIyWlLk6GJQsqaUBKTNV-0" />
        <mxCell id="WIyWlLk6GJQsqaUBKTNV-1" parent="WIyWlLk6GJQsqaUBKTNV-0" />
        <mxCell id="EFok8nTwk4CtRk3BqSgn-8" value="QTile" style="swimlane;fontStyle=1;align=center;verticalAlign=top;childLayout=stackLayout;horizontal=1;startSize=26;horizontalStack=0;resizeParent=1;resizeParentMax=0;resizeLast=0;collapsible=1;marginBottom=0;whiteSpace=wrap;html=1;" parent="WIyWlLk6GJQsqaUBKTNV-1" vertex="1">
          <mxGeometry x="307.5" y="850" width="210" height="170" as="geometry">
            <mxRectangle x="432.5" y="880" width="70" height="30" as="alternateBounds" />
          </mxGeometry>
        </mxCell>
        <mxCell id="EFok8nTwk4CtRk3BqSgn-9" value="-&amp;nbsp; (static)TileData: BYTE[ ][ ][ ][3]&lt;div&gt;-&amp;nbsp; bmif: BITMAPINFO&lt;/div&gt;" style="text;strokeColor=none;fillColor=none;align=left;verticalAlign=top;spacingLeft=4;spacingRight=4;overflow=hidden;rotatable=0;points=[[0,0.5],[1,0.5]];portConstraint=eastwest;whiteSpace=wrap;html=1;" parent="EFok8nTwk4CtRk3BqSgn-8" vertex="1">
          <mxGeometry y="26" width="210" height="34" as="geometry" />
        </mxCell>
        <mxCell id="EFok8nTwk4CtRk3BqSgn-10" value="" style="line;strokeWidth=1;fillColor=none;align=left;verticalAlign=middle;spacingTop=-1;spacingLeft=3;spacingRight=3;rotatable=0;labelPosition=right;points=[];portConstraint=eastwest;strokeColor=inherit;" parent="EFok8nTwk4CtRk3BqSgn-8" vertex="1">
          <mxGeometry y="60" width="210" height="8" as="geometry" />
        </mxCell>
        <mxCell id="EFok8nTwk4CtRk3BqSgn-11" value="+ QTile():&amp;nbsp;&lt;div&gt;+ ~QTile():&lt;/div&gt;&lt;div&gt;+ Draw(QPainter&amp;amp;,int,int,IDTILE idTile = TILE_FLOOR): void&lt;/div&gt;&lt;div&gt;+ DrawEx(QPainter&amp;amp;,int,int,IDTILE idTile,IDTILE idRoleTile): void&lt;/div&gt;&lt;div&gt;&lt;br&gt;&lt;div&gt;&lt;br&gt;&lt;/div&gt;&lt;/div&gt;" style="text;strokeColor=none;fillColor=none;align=left;verticalAlign=top;spacingLeft=4;spacingRight=4;overflow=hidden;rotatable=0;points=[[0,0.5],[1,0.5]];portConstraint=eastwest;whiteSpace=wrap;html=1;" parent="EFok8nTwk4CtRk3BqSgn-8" vertex="1">
          <mxGeometry y="68" width="210" height="102" as="geometry" />
        </mxCell>
        <mxCell id="EFok8nTwk4CtRk3BqSgn-12" value="TALK" style="swimlane;fontStyle=0;childLayout=stackLayout;horizontal=1;startSize=26;fillColor=none;horizontalStack=0;resizeParent=1;resizeParentMax=0;resizeLast=0;collapsible=1;marginBottom=0;whiteSpace=wrap;html=1;" parent="WIyWlLk6GJQsqaUBKTNV-1" vertex="1">
          <mxGeometry x="-360" y="670" width="180" height="110" as="geometry">
            <mxRectangle x="-250" y="700" width="70" height="30" as="alternateBounds" />
          </mxGeometry>
        </mxCell>
        <mxCell id="EFok8nTwk4CtRk3BqSgn-13" value="+ idTile: IDTILE[ ]" style="text;strokeColor=none;fillColor=none;align=left;verticalAlign=top;spacingLeft=4;spacingRight=4;overflow=hidden;rotatable=0;points=[[0,0.5],[1,0.5]];portConstraint=eastwest;whiteSpace=wrap;html=1;" parent="EFok8nTwk4CtRk3BqSgn-12" vertex="1">
          <mxGeometry y="26" width="180" height="26" as="geometry" />
        </mxCell>
        <mxCell id="EFok8nTwk4CtRk3BqSgn-14" value="+ npcName: QString&lt;span style=&quot;white-space: pre;&quot;&gt;&#x9;&lt;/span&gt;" style="text;strokeColor=none;fillColor=none;align=left;verticalAlign=top;spacingLeft=4;spacingRight=4;overflow=hidden;rotatable=0;points=[[0,0.5],[1,0.5]];portConstraint=eastwest;whiteSpace=wrap;html=1;" parent="EFok8nTwk4CtRk3BqSgn-12" vertex="1">
          <mxGeometry y="52" width="180" height="26" as="geometry" />
        </mxCell>
        <mxCell id="EFok8nTwk4CtRk3BqSgn-15" value="+ npcSentence: QString&amp;nbsp;" style="text;strokeColor=none;fillColor=none;align=left;verticalAlign=top;spacingLeft=4;spacingRight=4;overflow=hidden;rotatable=0;points=[[0,0.5],[1,0.5]];portConstraint=eastwest;whiteSpace=wrap;html=1;" parent="EFok8nTwk4CtRk3BqSgn-12" vertex="1">
          <mxGeometry y="78" width="180" height="32" as="geometry" />
        </mxCell>
        <mxCell id="EFok8nTwk4CtRk3BqSgn-24" value="&lt;b&gt;SCRIPTS&lt;/b&gt;" style="swimlane;fontStyle=0;childLayout=stackLayout;horizontal=1;startSize=26;fillColor=none;horizontalStack=0;resizeParent=1;resizeParentMax=0;resizeLast=0;collapsible=1;marginBottom=0;whiteSpace=wrap;html=1;" parent="WIyWlLk6GJQsqaUBKTNV-1" vertex="1">
          <mxGeometry x="530" y="470" width="140" height="110" as="geometry">
            <mxRectangle x="100" y="735" width="90" height="30" as="alternateBounds" />
          </mxGeometry>
        </mxCell>
        <mxCell id="EFok8nTwk4CtRk3BqSgn-25" value="+ idScript: IDSCRIPT" style="text;strokeColor=none;fillColor=none;align=left;verticalAlign=top;spacingLeft=4;spacingRight=4;overflow=hidden;rotatable=0;points=[[0,0.5],[1,0.5]];portConstraint=eastwest;whiteSpace=wrap;html=1;" parent="EFok8nTwk4CtRk3BqSgn-24" vertex="1">
          <mxGeometry y="26" width="140" height="26" as="geometry" />
        </mxCell>
        <mxCell id="EFok8nTwk4CtRk3BqSgn-27" value="+ Script: SCRIPT[ ]" style="text;strokeColor=none;fillColor=none;align=left;verticalAlign=top;spacingLeft=4;spacingRight=4;overflow=hidden;rotatable=0;points=[[0,0.5],[1,0.5]];portConstraint=eastwest;whiteSpace=wrap;html=1;" parent="EFok8nTwk4CtRk3BqSgn-24" vertex="1">
          <mxGeometry y="52" width="140" height="28" as="geometry" />
        </mxCell>
        <mxCell id="EFok8nTwk4CtRk3BqSgn-20" value="&lt;b&gt;SCRIPT&lt;/b&gt;" style="swimlane;fontStyle=0;childLayout=stackLayout;horizontal=1;startSize=26;fillColor=none;horizontalStack=0;resizeParent=1;resizeParentMax=0;resizeLast=0;collapsible=1;marginBottom=0;whiteSpace=wrap;html=1;" parent="EFok8nTwk4CtRk3BqSgn-24" vertex="1" collapsed="1">
          <mxGeometry y="80" width="140" height="30" as="geometry">
            <mxRectangle y="80" width="140" height="130" as="alternateBounds" />
          </mxGeometry>
        </mxCell>
        <mxCell id="EFok8nTwk4CtRk3BqSgn-21" value="+ idFun: IDFUN" style="text;strokeColor=none;fillColor=none;align=left;verticalAlign=top;spacingLeft=4;spacingRight=4;overflow=hidden;rotatable=0;points=[[0,0.5],[1,0.5]];portConstraint=eastwest;whiteSpace=wrap;html=1;" parent="EFok8nTwk4CtRk3BqSgn-20" vertex="1">
          <mxGeometry y="26" width="140" height="26" as="geometry" />
        </mxCell>
        <mxCell id="EFok8nTwk4CtRk3BqSgn-22" value="+ Param1: DWORD" style="text;strokeColor=none;fillColor=none;align=left;verticalAlign=top;spacingLeft=4;spacingRight=4;overflow=hidden;rotatable=0;points=[[0,0.5],[1,0.5]];portConstraint=eastwest;whiteSpace=wrap;html=1;" parent="EFok8nTwk4CtRk3BqSgn-20" vertex="1">
          <mxGeometry y="52" width="140" height="26" as="geometry" />
        </mxCell>
        <mxCell id="EFok8nTwk4CtRk3BqSgn-23" value="+ Param2: DWORD&lt;div&gt;&lt;br&gt;&lt;/div&gt;&lt;div&gt;+ Param3: DWORD&lt;br&gt;&lt;/div&gt;" style="text;strokeColor=none;fillColor=none;align=left;verticalAlign=top;spacingLeft=4;spacingRight=4;overflow=hidden;rotatable=0;points=[[0,0.5],[1,0.5]];portConstraint=eastwest;whiteSpace=wrap;html=1;" parent="EFok8nTwk4CtRk3BqSgn-20" vertex="1">
          <mxGeometry y="78" width="140" height="52" as="geometry" />
        </mxCell>
        <mxCell id="EFok8nTwk4CtRk3BqSgn-37" style="edgeStyle=orthogonalEdgeStyle;rounded=0;orthogonalLoop=1;jettySize=auto;html=1;exitX=0.5;exitY=0;exitDx=0;exitDy=0;entryX=0.648;entryY=1.06;entryDx=0;entryDy=0;entryPerimeter=0;" parent="EFok8nTwk4CtRk3BqSgn-24" source="EFok8nTwk4CtRk3BqSgn-20" target="EFok8nTwk4CtRk3BqSgn-27" edge="1">
          <mxGeometry relative="1" as="geometry" />
        </mxCell>
        <mxCell id="EFok8nTwk4CtRk3BqSgn-28" value="&lt;b&gt;SCRIPT&lt;/b&gt;" style="swimlane;fontStyle=0;childLayout=stackLayout;horizontal=1;startSize=26;fillColor=none;horizontalStack=0;resizeParent=1;resizeParentMax=0;resizeLast=0;collapsible=1;marginBottom=0;whiteSpace=wrap;html=1;" parent="WIyWlLk6GJQsqaUBKTNV-1" vertex="1">
          <mxGeometry x="540" y="620" width="140" height="130" as="geometry">
            <mxRectangle x="755" y="510" width="140" height="30" as="alternateBounds" />
          </mxGeometry>
        </mxCell>
        <mxCell id="EFok8nTwk4CtRk3BqSgn-29" value="+ idFun: IDFUN" style="text;strokeColor=none;fillColor=none;align=left;verticalAlign=top;spacingLeft=4;spacingRight=4;overflow=hidden;rotatable=0;points=[[0,0.5],[1,0.5]];portConstraint=eastwest;whiteSpace=wrap;html=1;" parent="EFok8nTwk4CtRk3BqSgn-28" vertex="1">
          <mxGeometry y="26" width="140" height="26" as="geometry" />
        </mxCell>
        <mxCell id="EFok8nTwk4CtRk3BqSgn-30" value="+ Param1: DWORD" style="text;strokeColor=none;fillColor=none;align=left;verticalAlign=top;spacingLeft=4;spacingRight=4;overflow=hidden;rotatable=0;points=[[0,0.5],[1,0.5]];portConstraint=eastwest;whiteSpace=wrap;html=1;" parent="EFok8nTwk4CtRk3BqSgn-28" vertex="1">
          <mxGeometry y="52" width="140" height="26" as="geometry" />
        </mxCell>
        <mxCell id="EFok8nTwk4CtRk3BqSgn-31" value="+ Param2: DWORD&lt;div&gt;&lt;br&gt;&lt;/div&gt;&lt;div&gt;+ Param3: DWORD&lt;br&gt;&lt;/div&gt;" style="text;strokeColor=none;fillColor=none;align=left;verticalAlign=top;spacingLeft=4;spacingRight=4;overflow=hidden;rotatable=0;points=[[0,0.5],[1,0.5]];portConstraint=eastwest;whiteSpace=wrap;html=1;" parent="EFok8nTwk4CtRk3BqSgn-28" vertex="1">
          <mxGeometry y="78" width="140" height="52" as="geometry" />
        </mxCell>
        <mxCell id="EFok8nTwk4CtRk3BqSgn-38" value="&lt;b&gt;ROLEINFO&lt;/b&gt;" style="swimlane;fontStyle=0;childLayout=stackLayout;horizontal=1;startSize=26;fillColor=none;horizontalStack=0;resizeParent=1;resizeParentMax=0;resizeLast=0;collapsible=1;marginBottom=0;whiteSpace=wrap;html=1;" parent="WIyWlLk6GJQsqaUBKTNV-1" vertex="1">
          <mxGeometry x="-120" y="1000" width="140" height="170" as="geometry">
            <mxRectangle x="-130" y="830" width="100" height="30" as="alternateBounds" />
          </mxGeometry>
        </mxCell>
        <mxCell id="EFok8nTwk4CtRk3BqSgn-39" value="+ nLevel: int&lt;div&gt;+ nHealth: int&lt;br&gt;&lt;/div&gt;&lt;div&gt;+ nAttack: int&lt;br&gt;&lt;/div&gt;&lt;div&gt;+ nDefense: int&lt;br&gt;&lt;/div&gt;&lt;div&gt;+ nMoney: int&lt;br&gt;&lt;/div&gt;&lt;div&gt;+ nExperience: int&lt;br&gt;&lt;/div&gt;&lt;div&gt;+ nRedKey: int&lt;br&gt;&lt;/div&gt;&lt;div&gt;+ nBlueKey: int&lt;br&gt;&lt;/div&gt;&lt;div&gt;+ nYellowKey: int&lt;br&gt;&lt;/div&gt;" style="text;strokeColor=none;fillColor=none;align=left;verticalAlign=top;spacingLeft=4;spacingRight=4;overflow=hidden;rotatable=0;points=[[0,0.5],[1,0.5]];portConstraint=eastwest;whiteSpace=wrap;html=1;" parent="EFok8nTwk4CtRk3BqSgn-38" vertex="1">
          <mxGeometry y="26" width="140" height="144" as="geometry" />
        </mxCell>
        <mxCell id="EFok8nTwk4CtRk3BqSgn-42" value="&lt;b&gt;NPCTILE&lt;/b&gt;" style="swimlane;fontStyle=0;childLayout=stackLayout;horizontal=1;startSize=26;fillColor=none;horizontalStack=0;resizeParent=1;resizeParentMax=0;resizeLast=0;collapsible=1;marginBottom=0;whiteSpace=wrap;html=1;" parent="WIyWlLk6GJQsqaUBKTNV-1" vertex="1">
          <mxGeometry x="-120" y="820" width="140" height="160" as="geometry">
            <mxRectangle x="67.5" y="860" width="90" height="30" as="alternateBounds" />
          </mxGeometry>
        </mxCell>
        <mxCell id="EFok8nTwk4CtRk3BqSgn-43" value="+ idTile: IDTILE[ ]" style="text;strokeColor=none;fillColor=none;align=left;verticalAlign=top;spacingLeft=4;spacingRight=4;overflow=hidden;rotatable=0;points=[[0,0.5],[1,0.5]];portConstraint=eastwest;whiteSpace=wrap;html=1;" parent="EFok8nTwk4CtRk3BqSgn-42" vertex="1">
          <mxGeometry y="26" width="140" height="26" as="geometry" />
        </mxCell>
        <mxCell id="EFok8nTwk4CtRk3BqSgn-44" value="+ idScript: IDSCRIPT" style="text;strokeColor=none;fillColor=none;align=left;verticalAlign=top;spacingLeft=4;spacingRight=4;overflow=hidden;rotatable=0;points=[[0,0.5],[1,0.5]];portConstraint=eastwest;whiteSpace=wrap;html=1;" parent="EFok8nTwk4CtRk3BqSgn-42" vertex="1">
          <mxGeometry y="52" width="140" height="26" as="geometry" />
        </mxCell>
        <mxCell id="EFok8nTwk4CtRk3BqSgn-45" value="+ bShow: BOOL&lt;div&gt;&lt;br&gt;&lt;/div&gt;&lt;div&gt;+ NpcInfo: NPCINFO[ ]&lt;/div&gt;" style="text;strokeColor=none;fillColor=none;align=left;verticalAlign=top;spacingLeft=4;spacingRight=4;overflow=hidden;rotatable=0;points=[[0,0.5],[1,0.5]];portConstraint=eastwest;whiteSpace=wrap;html=1;" parent="EFok8nTwk4CtRk3BqSgn-42" vertex="1">
          <mxGeometry y="78" width="140" height="52" as="geometry" />
        </mxCell>
        <mxCell id="EFok8nTwk4CtRk3BqSgn-46" value="NPCINFO" style="swimlane;fontStyle=0;childLayout=stackLayout;horizontal=1;startSize=26;fillColor=none;horizontalStack=0;resizeParent=1;resizeParentMax=0;resizeLast=0;collapsible=1;marginBottom=0;whiteSpace=wrap;html=1;" parent="EFok8nTwk4CtRk3BqSgn-42" vertex="1" collapsed="1">
          <mxGeometry y="130" width="140" height="30" as="geometry">
            <mxRectangle y="130" width="140" height="170" as="alternateBounds" />
          </mxGeometry>
        </mxCell>
        <mxCell id="EFok8nTwk4CtRk3BqSgn-47" value="+ nLevel: int&lt;div&gt;+ nHealth: int&lt;br&gt;&lt;/div&gt;&lt;div&gt;+ nAttack: int&lt;br&gt;&lt;/div&gt;&lt;div&gt;+ nDefense: int&lt;br&gt;&lt;/div&gt;&lt;div&gt;+ nMoney: int&lt;br&gt;&lt;/div&gt;&lt;div&gt;+ nExperience: int&lt;br&gt;&lt;/div&gt;&lt;div&gt;+ nRedKey: int&lt;br&gt;&lt;/div&gt;&lt;div&gt;+ nBlueKey: int&lt;br&gt;&lt;/div&gt;&lt;div&gt;+ nYellowKey: int&lt;br&gt;&lt;/div&gt;" style="text;strokeColor=none;fillColor=none;align=left;verticalAlign=top;spacingLeft=4;spacingRight=4;overflow=hidden;rotatable=0;points=[[0,0.5],[1,0.5]];portConstraint=eastwest;whiteSpace=wrap;html=1;" parent="EFok8nTwk4CtRk3BqSgn-46" vertex="1">
          <mxGeometry y="26" width="140" height="144" as="geometry" />
        </mxCell>
        <mxCell id="EFok8nTwk4CtRk3BqSgn-49" style="edgeStyle=orthogonalEdgeStyle;rounded=0;orthogonalLoop=1;jettySize=auto;html=1;exitX=0.5;exitY=0;exitDx=0;exitDy=0;entryX=0.505;entryY=1.045;entryDx=0;entryDy=0;entryPerimeter=0;" parent="EFok8nTwk4CtRk3BqSgn-42" source="EFok8nTwk4CtRk3BqSgn-46" target="EFok8nTwk4CtRk3BqSgn-45" edge="1">
          <mxGeometry relative="1" as="geometry" />
        </mxCell>
        <mxCell id="EFok8nTwk4CtRk3BqSgn-52" value="&lt;b&gt;GAMESTATE&lt;/b&gt;" style="swimlane;fontStyle=0;childLayout=stackLayout;horizontal=1;startSize=26;fillColor=none;horizontalStack=0;resizeParent=1;resizeParentMax=0;resizeLast=0;collapsible=1;marginBottom=0;whiteSpace=wrap;html=1;" parent="WIyWlLk6GJQsqaUBKTNV-1" vertex="1">
          <mxGeometry x="140" y="100" width="120" height="110" as="geometry">
            <mxRectangle x="160" y="70" width="110" height="30" as="alternateBounds" />
          </mxGeometry>
        </mxCell>
        <mxCell id="EFok8nTwk4CtRk3BqSgn-53" value="GS_FIGHT&lt;div&gt;GS_INIT&lt;/div&gt;&lt;div&gt;GS_OVER&lt;/div&gt;&lt;div&gt;GS_TALK&lt;/div&gt;&lt;div&gt;GS_WALK&amp;nbsp;&lt;/div&gt;" style="text;strokeColor=none;fillColor=none;align=left;verticalAlign=top;spacingLeft=4;spacingRight=4;overflow=hidden;rotatable=0;points=[[0,0.5],[1,0.5]];portConstraint=eastwest;whiteSpace=wrap;html=1;" parent="EFok8nTwk4CtRk3BqSgn-52" vertex="1">
          <mxGeometry y="26" width="120" height="84" as="geometry" />
        </mxCell>
        <mxCell id="EFok8nTwk4CtRk3BqSgn-56" value="QTalk" style="swimlane;fontStyle=1;align=center;verticalAlign=top;childLayout=stackLayout;horizontal=1;startSize=26;horizontalStack=0;resizeParent=1;resizeParentMax=0;resizeLast=0;collapsible=1;marginBottom=0;whiteSpace=wrap;html=1;" parent="WIyWlLk6GJQsqaUBKTNV-1" vertex="1">
          <mxGeometry x="-140" y="570" width="180" height="200" as="geometry">
            <mxRectangle x="-220" y="590" width="70" height="30" as="alternateBounds" />
          </mxGeometry>
        </mxCell>
        <mxCell id="EFok8nTwk4CtRk3BqSgn-57" value="-&amp;nbsp; m_idTalk: IDTALK&lt;div&gt;-&amp;nbsp; nTileIndex: int&lt;/div&gt;&lt;div&gt;-&amp;nbsp; Tile: QTile&lt;/div&gt;&lt;div&gt;-&amp;nbsp; (static) Talk: TALK[ ]&lt;/div&gt;" style="text;strokeColor=none;fillColor=none;align=left;verticalAlign=top;spacingLeft=4;spacingRight=4;overflow=hidden;rotatable=0;points=[[0,0.5],[1,0.5]];portConstraint=eastwest;whiteSpace=wrap;html=1;" parent="EFok8nTwk4CtRk3BqSgn-56" vertex="1">
          <mxGeometry y="26" width="180" height="64" as="geometry" />
        </mxCell>
        <mxCell id="EFok8nTwk4CtRk3BqSgn-58" value="" style="line;strokeWidth=1;fillColor=none;align=left;verticalAlign=middle;spacingTop=-1;spacingLeft=3;spacingRight=3;rotatable=0;labelPosition=right;points=[];portConstraint=eastwest;strokeColor=inherit;" parent="EFok8nTwk4CtRk3BqSgn-56" vertex="1">
          <mxGeometry y="90" width="180" height="8" as="geometry" />
        </mxCell>
        <mxCell id="EFok8nTwk4CtRk3BqSgn-59" value="&lt;div&gt;+ QTalk():&lt;/div&gt;&lt;div&gt;+ ~QTalk():&lt;/div&gt;&lt;div&gt;+ Load(IDTALK): void&lt;/div&gt;+ OnTimer(UINT): void&lt;div&gt;+ OnKeyDown(UINT): BOOL&lt;/div&gt;&lt;div&gt;+ OnDraw(QPainter&amp;amp;): void&amp;nbsp;&lt;/div&gt;" style="text;strokeColor=none;fillColor=none;align=left;verticalAlign=top;spacingLeft=4;spacingRight=4;overflow=hidden;rotatable=0;points=[[0,0.5],[1,0.5]];portConstraint=eastwest;whiteSpace=wrap;html=1;" parent="EFok8nTwk4CtRk3BqSgn-56" vertex="1">
          <mxGeometry y="98" width="180" height="102" as="geometry" />
        </mxCell>
        <mxCell id="EFok8nTwk4CtRk3BqSgn-64" value="QStory" style="swimlane;fontStyle=1;align=center;verticalAlign=top;childLayout=stackLayout;horizontal=1;startSize=26;horizontalStack=0;resizeParent=1;resizeParentMax=0;resizeLast=0;collapsible=1;marginBottom=0;whiteSpace=wrap;html=1;" parent="WIyWlLk6GJQsqaUBKTNV-1" vertex="1">
          <mxGeometry x="332.5" y="660" width="170" height="160" as="geometry">
            <mxRectangle x="125" y="660" width="80" height="30" as="alternateBounds" />
          </mxGeometry>
        </mxCell>
        <mxCell id="EFok8nTwk4CtRk3BqSgn-65" value="-&amp;nbsp; StoryBuf: char[ ]&lt;div&gt;-&amp;nbsp; StoryBufIndex: int&lt;br&gt;&lt;/div&gt;" style="text;strokeColor=none;fillColor=none;align=left;verticalAlign=top;spacingLeft=4;spacingRight=4;overflow=hidden;rotatable=0;points=[[0,0.5],[1,0.5]];portConstraint=eastwest;whiteSpace=wrap;html=1;" parent="EFok8nTwk4CtRk3BqSgn-64" vertex="1">
          <mxGeometry y="26" width="170" height="34" as="geometry" />
        </mxCell>
        <mxCell id="EFok8nTwk4CtRk3BqSgn-66" value="" style="line;strokeWidth=1;fillColor=none;align=left;verticalAlign=middle;spacingTop=-1;spacingLeft=3;spacingRight=3;rotatable=0;labelPosition=right;points=[];portConstraint=eastwest;strokeColor=inherit;" parent="EFok8nTwk4CtRk3BqSgn-64" vertex="1">
          <mxGeometry y="60" width="170" height="8" as="geometry" />
        </mxCell>
        <mxCell id="EFok8nTwk4CtRk3BqSgn-67" value="+ QStory():&lt;br&gt;+ ~QStory():&lt;div&gt;+ Init(): void&lt;/div&gt;&lt;div&gt;+ OnDraw(QPainter&amp;amp;): void&lt;/div&gt;&lt;div&gt;+ OnTimer(UINT): BOOL&lt;/div&gt;&lt;div&gt;+ OnKeyDown(UINT): BOOL&lt;/div&gt;" style="text;strokeColor=none;fillColor=none;align=left;verticalAlign=top;spacingLeft=4;spacingRight=4;overflow=hidden;rotatable=0;points=[[0,0.5],[1,0.5]];portConstraint=eastwest;whiteSpace=wrap;html=1;" parent="EFok8nTwk4CtRk3BqSgn-64" vertex="1">
          <mxGeometry y="68" width="170" height="92" as="geometry" />
        </mxCell>
        <mxCell id="EFok8nTwk4CtRk3BqSgn-68" value="QScript" style="swimlane;fontStyle=1;align=center;verticalAlign=top;childLayout=stackLayout;horizontal=1;startSize=26;horizontalStack=0;resizeParent=1;resizeParentMax=0;resizeLast=0;collapsible=1;marginBottom=0;whiteSpace=wrap;html=1;" parent="WIyWlLk6GJQsqaUBKTNV-1" vertex="1">
          <mxGeometry x="327.5" y="440" width="180" height="200" as="geometry">
            <mxRectangle x="70" y="640" width="80" height="30" as="alternateBounds" />
          </mxGeometry>
        </mxCell>
        <mxCell id="EFok8nTwk4CtRk3BqSgn-69" value="-&amp;nbsp; (static)Script: SCRIPTS[ ]&lt;div&gt;-&amp;nbsp; m_Script: SCRIPT&lt;/div&gt;&lt;div&gt;-&amp;nbsp; m_nScriptIndex: int&lt;/div&gt;&lt;div&gt;-&amp;nbsp; m_nCommandIndex: int&lt;/div&gt;" style="text;strokeColor=none;fillColor=none;align=left;verticalAlign=top;spacingLeft=4;spacingRight=4;overflow=hidden;rotatable=0;points=[[0,0.5],[1,0.5]];portConstraint=eastwest;whiteSpace=wrap;html=1;" parent="EFok8nTwk4CtRk3BqSgn-68" vertex="1">
          <mxGeometry y="26" width="180" height="64" as="geometry" />
        </mxCell>
        <mxCell id="EFok8nTwk4CtRk3BqSgn-70" value="" style="line;strokeWidth=1;fillColor=none;align=left;verticalAlign=middle;spacingTop=-1;spacingLeft=3;spacingRight=3;rotatable=0;labelPosition=right;points=[];portConstraint=eastwest;strokeColor=inherit;" parent="EFok8nTwk4CtRk3BqSgn-68" vertex="1">
          <mxGeometry y="90" width="180" height="8" as="geometry" />
        </mxCell>
        <mxCell id="EFok8nTwk4CtRk3BqSgn-71" value="+ QScript():&lt;div&gt;+ ~QScript():&lt;/div&gt;&lt;div&gt;+ (static)InitScript(): void&amp;nbsp;&lt;/div&gt;&lt;div&gt;+ LoadScript(IDSCRIPT): void&lt;/div&gt;&lt;div&gt;+ LoadNextScript(): void&lt;/div&gt;&lt;div&gt;+ GetScriptInfo(): SCRIPT&lt;/div&gt;" style="text;strokeColor=none;fillColor=none;align=left;verticalAlign=top;spacingLeft=4;spacingRight=4;overflow=hidden;rotatable=0;points=[[0,0.5],[1,0.5]];portConstraint=eastwest;whiteSpace=wrap;html=1;" parent="EFok8nTwk4CtRk3BqSgn-68" vertex="1">
          <mxGeometry y="98" width="180" height="102" as="geometry" />
        </mxCell>
        <mxCell id="EFok8nTwk4CtRk3BqSgn-72" value="QRole" style="swimlane;fontStyle=1;align=center;verticalAlign=top;childLayout=stackLayout;horizontal=1;startSize=26;horizontalStack=0;resizeParent=1;resizeParentMax=0;resizeLast=0;collapsible=1;marginBottom=0;whiteSpace=wrap;html=1;" parent="WIyWlLk6GJQsqaUBKTNV-1" vertex="1">
          <mxGeometry x="60" y="870" width="200" height="318" as="geometry">
            <mxRectangle x="720" y="180" width="70" height="30" as="alternateBounds" />
          </mxGeometry>
        </mxCell>
        <mxCell id="EFok8nTwk4CtRk3BqSgn-73" value="-&amp;nbsp; m_ptPos: QPoint&lt;div&gt;-&amp;nbsp; m_rtWalk: QRect&lt;/div&gt;&lt;div&gt;-&amp;nbsp; RoleInfo: ROLEINFO&lt;/div&gt;&lt;div&gt;-&amp;nbsp; (static)idTiles: IDTILE[ ]&lt;/div&gt;&lt;div&gt;-&amp;nbsp; m_nTileIndex: int&lt;/div&gt;" style="text;strokeColor=none;fillColor=none;align=left;verticalAlign=top;spacingLeft=4;spacingRight=4;overflow=hidden;rotatable=0;points=[[0,0.5],[1,0.5]];portConstraint=eastwest;whiteSpace=wrap;html=1;" parent="EFok8nTwk4CtRk3BqSgn-72" vertex="1">
          <mxGeometry y="26" width="200" height="84" as="geometry" />
        </mxCell>
        <mxCell id="EFok8nTwk4CtRk3BqSgn-74" value="" style="line;strokeWidth=1;fillColor=none;align=left;verticalAlign=middle;spacingTop=-1;spacingLeft=3;spacingRight=3;rotatable=0;labelPosition=right;points=[];portConstraint=eastwest;strokeColor=inherit;" parent="EFok8nTwk4CtRk3BqSgn-72" vertex="1">
          <mxGeometry y="110" width="200" height="8" as="geometry" />
        </mxCell>
        <mxCell id="EFok8nTwk4CtRk3BqSgn-75" value="+ QRole():&amp;nbsp;&lt;div&gt;+ ~QRole():&lt;/div&gt;&lt;div&gt;+ OnTimer(UINT): void&lt;/div&gt;&lt;div&gt;+ GetNextPoint(UINT): QPoint&lt;/div&gt;&lt;div&gt;+ GetPos(): QPoint&lt;/div&gt;&lt;div&gt;+ GetRoleInfo(): ROLEINFO&amp;nbsp;&lt;/div&gt;&lt;div&gt;+ GetRoleTileID(): IDTILE&lt;/div&gt;&lt;div&gt;-&amp;nbsp; GetTileIndex(IDTILE): int&lt;/div&gt;&lt;div&gt;+ IsRoleTileID(IDTILE): BOOL&lt;/div&gt;&lt;div&gt;+ SetRoleInfo(ROLEINFO): void&lt;/div&gt;&lt;div&gt;+ SetPos(QPoint,IDTILE,BOOL bTurn=FALSE): void&lt;/div&gt;&lt;div&gt;+ MoveTo(QPoint): void&lt;/div&gt;" style="text;strokeColor=none;fillColor=none;align=left;verticalAlign=top;spacingLeft=4;spacingRight=4;overflow=hidden;rotatable=0;points=[[0,0.5],[1,0.5]];portConstraint=eastwest;whiteSpace=wrap;html=1;" parent="EFok8nTwk4CtRk3BqSgn-72" vertex="1">
          <mxGeometry y="118" width="200" height="200" as="geometry" />
        </mxCell>
        <mxCell id="EFok8nTwk4CtRk3BqSgn-77" value="QNpc" style="swimlane;fontStyle=1;align=center;verticalAlign=top;childLayout=stackLayout;horizontal=1;startSize=26;horizontalStack=0;resizeParent=1;resizeParentMax=0;resizeLast=0;collapsible=1;marginBottom=0;whiteSpace=wrap;html=1;" parent="WIyWlLk6GJQsqaUBKTNV-1" vertex="1">
          <mxGeometry x="-340" y="820" width="180" height="290" as="geometry">
            <mxRectangle x="250" y="860" width="70" height="30" as="alternateBounds" />
          </mxGeometry>
        </mxCell>
        <mxCell id="EFok8nTwk4CtRk3BqSgn-78" value="-&amp;nbsp; m_bShow: BOOL&lt;div&gt;-&amp;nbsp; (static)NpcData: NPCTILE[ ]&lt;/div&gt;&lt;div&gt;-&amp;nbsp; m_idTile: IDTILE[ ]&lt;/div&gt;&lt;div&gt;-&amp;nbsp; m_nTileIndex: int&lt;/div&gt;&lt;div&gt;-&amp;nbsp; m_idScript: IDSCRIPT&lt;/div&gt;" style="text;strokeColor=none;fillColor=none;align=left;verticalAlign=top;spacingLeft=4;spacingRight=4;overflow=hidden;rotatable=0;points=[[0,0.5],[1,0.5]];portConstraint=eastwest;whiteSpace=wrap;html=1;" parent="EFok8nTwk4CtRk3BqSgn-77" vertex="1">
          <mxGeometry y="26" width="180" height="84" as="geometry" />
        </mxCell>
        <mxCell id="EFok8nTwk4CtRk3BqSgn-79" value="" style="line;strokeWidth=1;fillColor=none;align=left;verticalAlign=middle;spacingTop=-1;spacingLeft=3;spacingRight=3;rotatable=0;labelPosition=right;points=[];portConstraint=eastwest;strokeColor=inherit;" parent="EFok8nTwk4CtRk3BqSgn-77" vertex="1">
          <mxGeometry y="110" width="180" height="8" as="geometry" />
        </mxCell>
        <mxCell id="EFok8nTwk4CtRk3BqSgn-80" value="+ QNpc():&lt;div&gt;+ ~QNpc():&lt;/div&gt;&lt;div&gt;+ (static)InitNpc(): void&lt;/div&gt;&lt;div&gt;+ Load(IDTILE): void&lt;/div&gt;&lt;div&gt;+ Load(QNpc &amp;amp;): void&lt;/div&gt;&lt;div&gt;+ OnTimer(UINT): void&lt;/div&gt;&lt;div&gt;+ GetTileID(): IDTILE&lt;/div&gt;&lt;div&gt;+ GetNpcTile(IDTILE[ ]): void&lt;/div&gt;&lt;div&gt;+ GetNpcInfo(): NPCINFO&lt;/div&gt;&lt;div&gt;+ GetScriptID(): IDSCRIPT&lt;/div&gt;&lt;div&gt;+ Hide(): void&lt;/div&gt;&lt;div&gt;&amp;nbsp;&lt;/div&gt;" style="text;strokeColor=none;fillColor=none;align=left;verticalAlign=top;spacingLeft=4;spacingRight=4;overflow=hidden;rotatable=0;points=[[0,0.5],[1,0.5]];portConstraint=eastwest;whiteSpace=wrap;html=1;" parent="EFok8nTwk4CtRk3BqSgn-77" vertex="1">
          <mxGeometry y="118" width="180" height="172" as="geometry" />
        </mxCell>
        <mxCell id="EFok8nTwk4CtRk3BqSgn-81" value="QScene" style="swimlane;fontStyle=1;align=center;verticalAlign=top;childLayout=stackLayout;horizontal=1;startSize=26;horizontalStack=0;resizeParent=1;resizeParentMax=0;resizeLast=0;collapsible=1;marginBottom=0;whiteSpace=wrap;html=1;" parent="WIyWlLk6GJQsqaUBKTNV-1" vertex="1">
          <mxGeometry x="-380" y="120" width="220" height="500" as="geometry">
            <mxRectangle x="325" y="665" width="80" height="30" as="alternateBounds" />
          </mxGeometry>
        </mxCell>
        <mxCell id="EFok8nTwk4CtRk3BqSgn-82" value="-&amp;nbsp; SceneName: QString&lt;div&gt;-&amp;nbsp; m_idScene: IDSCENE&lt;/div&gt;&lt;div&gt;-&amp;nbsp; m_idLayerDone: IDSCENE&lt;/div&gt;&lt;div&gt;-&amp;nbsp; Tile: QTile&lt;/div&gt;&lt;div&gt;-&amp;nbsp; Npc: QNpc[ ][ ][ ]&lt;/div&gt;&lt;div&gt;-&amp;nbsp; Role: QRole&lt;/div&gt;&lt;div&gt;-&amp;nbsp; RoleEntryPos: QPoint[ ]&lt;/div&gt;&lt;div&gt;-&amp;nbsp; RoleExitPos: QPoint[ ]&lt;/div&gt;&lt;div&gt;-&amp;nbsp; RoleEntryTile: IDTILE[ ]&lt;/div&gt;&lt;div&gt;-&amp;nbsp; RoleExitTile: IDTILE[ ]&lt;/div&gt;" style="text;strokeColor=none;fillColor=none;align=left;verticalAlign=top;spacingLeft=4;spacingRight=4;overflow=hidden;rotatable=0;points=[[0,0.5],[1,0.5]];portConstraint=eastwest;whiteSpace=wrap;html=1;" parent="EFok8nTwk4CtRk3BqSgn-81" vertex="1">
          <mxGeometry y="26" width="220" height="154" as="geometry" />
        </mxCell>
        <mxCell id="EFok8nTwk4CtRk3BqSgn-83" value="" style="line;strokeWidth=1;fillColor=none;align=left;verticalAlign=middle;spacingTop=-1;spacingLeft=3;spacingRight=3;rotatable=0;labelPosition=right;points=[];portConstraint=eastwest;strokeColor=inherit;" parent="EFok8nTwk4CtRk3BqSgn-81" vertex="1">
          <mxGeometry y="180" width="220" height="8" as="geometry" />
        </mxCell>
        <mxCell id="EFok8nTwk4CtRk3BqSgn-84" value="+ QScene():&lt;div&gt;+&amp;nbsp; ~QScene():&lt;/div&gt;&lt;div&gt;+ Load(IDSCENE): void&lt;/div&gt;&lt;div&gt;+ Backward(): void&lt;/div&gt;&lt;div&gt;+ Forward(): void&lt;/div&gt;&lt;div&gt;+ OnDraw(QPainter &amp;amp;): void&lt;/div&gt;&lt;div&gt;+ OnTimer(UINT): void&lt;/div&gt;&lt;div&gt;+ GetRoleNextPoint(UINT): QPoint&lt;/div&gt;&lt;div&gt;+ GetSceneID(): IDSCENE&lt;/div&gt;&lt;div&gt;+ GetSceneName(): QString&lt;/div&gt;&lt;div&gt;+ GetRoleTileID(): IDTILE&lt;/div&gt;&lt;div&gt;+ GetRolePos(): QPoint&lt;/div&gt;&lt;div&gt;+ GetRoleInfo(): ROLEINFO&lt;/div&gt;&lt;div&gt;+ GetNpcTile(QPoint,IDTILE[ ],NPCINFO*): void&lt;/div&gt;&lt;div&gt;+ GetNpcInfo(QPoint): NPCINFO&lt;/div&gt;&lt;div&gt;+ GetScriptID(QPoint): IDSCRIPT&lt;/div&gt;&lt;div&gt;+ SetRolePos(QPoint): void&lt;/div&gt;&lt;div&gt;+ SetRoleInfo(ROLEINFO): void&lt;/div&gt;&lt;div&gt;+ SetNpcPos(QPoint,QPoint): void&lt;/div&gt;&lt;div&gt;+ HideNpc(QPoint): void&lt;/div&gt;" style="text;strokeColor=none;fillColor=none;align=left;verticalAlign=top;spacingLeft=4;spacingRight=4;overflow=hidden;rotatable=0;points=[[0,0.5],[1,0.5]];portConstraint=eastwest;whiteSpace=wrap;html=1;" parent="EFok8nTwk4CtRk3BqSgn-81" vertex="1">
          <mxGeometry y="188" width="220" height="312" as="geometry" />
        </mxCell>
        <mxCell id="EFok8nTwk4CtRk3BqSgn-85" value="QBackGround" style="swimlane;fontStyle=1;align=center;verticalAlign=top;childLayout=stackLayout;horizontal=1;startSize=26;horizontalStack=0;resizeParent=1;resizeParentMax=0;resizeLast=0;collapsible=1;marginBottom=0;whiteSpace=wrap;html=1;" parent="WIyWlLk6GJQsqaUBKTNV-1" vertex="1">
          <mxGeometry x="103" y="730" width="170" height="110" as="geometry">
            <mxRectangle x="538.75" y="655" width="120" height="30" as="alternateBounds" />
          </mxGeometry>
        </mxCell>
        <mxCell id="EFok8nTwk4CtRk3BqSgn-86" value="-&amp;nbsp; Tile: QTile" style="text;strokeColor=none;fillColor=none;align=left;verticalAlign=top;spacingLeft=4;spacingRight=4;overflow=hidden;rotatable=0;points=[[0,0.5],[1,0.5]];portConstraint=eastwest;whiteSpace=wrap;html=1;" parent="EFok8nTwk4CtRk3BqSgn-85" vertex="1">
          <mxGeometry y="26" width="170" height="26" as="geometry" />
        </mxCell>
        <mxCell id="EFok8nTwk4CtRk3BqSgn-87" value="" style="line;strokeWidth=1;fillColor=none;align=left;verticalAlign=middle;spacingTop=-1;spacingLeft=3;spacingRight=3;rotatable=0;labelPosition=right;points=[];portConstraint=eastwest;strokeColor=inherit;" parent="EFok8nTwk4CtRk3BqSgn-85" vertex="1">
          <mxGeometry y="52" width="170" height="8" as="geometry" />
        </mxCell>
        <mxCell id="EFok8nTwk4CtRk3BqSgn-88" value="+ QBackGround():&lt;div&gt;+ ~QBackGround():&lt;/div&gt;&lt;div&gt;+ OnDraw(QPainter &amp;amp;): void&amp;nbsp;&lt;/div&gt;" style="text;strokeColor=none;fillColor=none;align=left;verticalAlign=top;spacingLeft=4;spacingRight=4;overflow=hidden;rotatable=0;points=[[0,0.5],[1,0.5]];portConstraint=eastwest;whiteSpace=wrap;html=1;" parent="EFok8nTwk4CtRk3BqSgn-85" vertex="1">
          <mxGeometry y="60" width="170" height="50" as="geometry" />
        </mxCell>
        <mxCell id="EFok8nTwk4CtRk3BqSgn-89" value="QFight" style="swimlane;fontStyle=1;align=center;verticalAlign=top;childLayout=stackLayout;horizontal=1;startSize=26;horizontalStack=0;resizeParent=1;resizeParentMax=0;resizeLast=0;collapsible=1;marginBottom=0;whiteSpace=wrap;html=1;" parent="WIyWlLk6GJQsqaUBKTNV-1" vertex="1">
          <mxGeometry x="-60" y="10" width="170" height="250" as="geometry">
            <mxRectangle x="-110" y="580" width="80" height="30" as="alternateBounds" />
          </mxGeometry>
        </mxCell>
        <mxCell id="EFok8nTwk4CtRk3BqSgn-90" value="-&amp;nbsp; bAttack: BOOL&lt;div&gt;-&amp;nbsp; Tile: QTile&lt;/div&gt;&lt;div&gt;-&amp;nbsp; nTileIndex: int&lt;/div&gt;&lt;div&gt;-&amp;nbsp; m_RoleInfo: ROLEINFO&lt;br&gt;-&amp;nbsp; m_NpcInfo: NPCINFO&lt;/div&gt;&lt;div&gt;-&amp;nbsp; m_idTile: IDTILE[ ]&lt;/div&gt;" style="text;strokeColor=none;fillColor=none;align=left;verticalAlign=top;spacingLeft=4;spacingRight=4;overflow=hidden;rotatable=0;points=[[0,0.5],[1,0.5]];portConstraint=eastwest;whiteSpace=wrap;html=1;" parent="EFok8nTwk4CtRk3BqSgn-89" vertex="1">
          <mxGeometry y="26" width="170" height="94" as="geometry" />
        </mxCell>
        <mxCell id="EFok8nTwk4CtRk3BqSgn-91" value="" style="line;strokeWidth=1;fillColor=none;align=left;verticalAlign=middle;spacingTop=-1;spacingLeft=3;spacingRight=3;rotatable=0;labelPosition=right;points=[];portConstraint=eastwest;strokeColor=inherit;" parent="EFok8nTwk4CtRk3BqSgn-89" vertex="1">
          <mxGeometry y="120" width="170" height="8" as="geometry" />
        </mxCell>
        <mxCell id="EFok8nTwk4CtRk3BqSgn-92" value="+ QFight():&lt;div&gt;+ ~QFight():&lt;/div&gt;&lt;div&gt;+ Load(IDTILE[ ],NPCINFO,ROLEINFO): void&lt;/div&gt;&lt;div&gt;+ OnTimer(UINT): BOOL&lt;br&gt;+ OnKeyDown(UINT): BOOL&lt;/div&gt;&lt;div&gt;+ OnDraw(QPainter &amp;amp;): void&lt;/div&gt;&lt;div&gt;+ GetResult(): ROLEINFO&amp;nbsp;&lt;/div&gt;" style="text;strokeColor=none;fillColor=none;align=left;verticalAlign=top;spacingLeft=4;spacingRight=4;overflow=hidden;rotatable=0;points=[[0,0.5],[1,0.5]];portConstraint=eastwest;whiteSpace=wrap;html=1;" parent="EFok8nTwk4CtRk3BqSgn-89" vertex="1">
          <mxGeometry y="128" width="170" height="122" as="geometry" />
        </mxCell>
        <mxCell id="EFok8nTwk4CtRk3BqSgn-93" value="QInfo" style="swimlane;fontStyle=1;align=center;verticalAlign=top;childLayout=stackLayout;horizontal=1;startSize=26;horizontalStack=0;resizeParent=1;resizeParentMax=0;resizeLast=0;collapsible=1;marginBottom=0;whiteSpace=wrap;html=1;" parent="WIyWlLk6GJQsqaUBKTNV-1" vertex="1">
          <mxGeometry x="-140" y="356" width="170" height="200" as="geometry">
            <mxRectangle x="-140" y="356" width="70" height="30" as="alternateBounds" />
          </mxGeometry>
        </mxCell>
        <mxCell id="EFok8nTwk4CtRk3BqSgn-94" value="-&amp;nbsp; Tile: QTile&lt;div&gt;-&amp;nbsp; crBorderColor: COLORREF&lt;/div&gt;&lt;div&gt;-&amp;nbsp; nBorderWidth: int&lt;/div&gt;" style="text;strokeColor=none;fillColor=none;align=left;verticalAlign=top;spacingLeft=4;spacingRight=4;overflow=hidden;rotatable=0;points=[[0,0.5],[1,0.5]];portConstraint=eastwest;whiteSpace=wrap;html=1;" parent="EFok8nTwk4CtRk3BqSgn-93" vertex="1">
          <mxGeometry y="26" width="170" height="54" as="geometry" />
        </mxCell>
        <mxCell id="EFok8nTwk4CtRk3BqSgn-95" value="" style="line;strokeWidth=1;fillColor=none;align=left;verticalAlign=middle;spacingTop=-1;spacingLeft=3;spacingRight=3;rotatable=0;labelPosition=right;points=[];portConstraint=eastwest;strokeColor=inherit;" parent="EFok8nTwk4CtRk3BqSgn-93" vertex="1">
          <mxGeometry y="80" width="170" height="8" as="geometry" />
        </mxCell>
        <mxCell id="EFok8nTwk4CtRk3BqSgn-96" value="+ QInfo():&lt;div&gt;+ ~QInfo():&lt;/div&gt;&lt;div&gt;+ DrawBorder(QPainter &amp;amp;,QRect): void&lt;/div&gt;&lt;div&gt;+ OnDraw(QPainter &amp;amp;,QRect, const ROLEINFO, const QString): void&lt;/div&gt;" style="text;strokeColor=none;fillColor=none;align=left;verticalAlign=top;spacingLeft=4;spacingRight=4;overflow=hidden;rotatable=0;points=[[0,0.5],[1,0.5]];portConstraint=eastwest;whiteSpace=wrap;html=1;" parent="EFok8nTwk4CtRk3BqSgn-93" vertex="1">
          <mxGeometry y="88" width="170" height="112" as="geometry" />
        </mxCell>
        <mxCell id="EFok8nTwk4CtRk3BqSgn-97" value="QGame" style="swimlane;fontStyle=1;align=center;verticalAlign=top;childLayout=stackLayout;horizontal=1;startSize=26;horizontalStack=0;resizeParent=1;resizeParentMax=0;resizeLast=0;collapsible=1;marginBottom=0;whiteSpace=wrap;html=1;" parent="WIyWlLk6GJQsqaUBKTNV-1" vertex="1">
          <mxGeometry x="83.5" y="330" width="209" height="370" as="geometry">
            <mxRectangle x="170" y="230" width="80" height="30" as="alternateBounds" />
          </mxGeometry>
        </mxCell>
        <mxCell id="EFok8nTwk4CtRk3BqSgn-98" value="-&amp;nbsp; GameState: GAMESTATE&lt;div&gt;-&amp;nbsp; m_bRun: BOOL&lt;/div&gt;&lt;div&gt;-&amp;nbsp; GameClient: QSize&lt;/div&gt;&lt;div&gt;-&amp;nbsp; MainRect: QRect&lt;/div&gt;&lt;div&gt;-&amp;nbsp; InfoRect: QRect&lt;/div&gt;&lt;div&gt;-&amp;nbsp; ptCurNpcPos: QPoint&lt;/div&gt;&lt;div&gt;-&amp;nbsp; CacheDC: QPainter&lt;/div&gt;&lt;div&gt;-&amp;nbsp; MapDC: QPainter&lt;/div&gt;&lt;div&gt;-&amp;nbsp; BackGround: QBackGround&lt;/div&gt;&lt;div&gt;-&amp;nbsp; Scene: QScene&lt;/div&gt;&lt;div&gt;-&amp;nbsp; Fight: QFight&lt;/div&gt;&lt;div&gt;-&amp;nbsp; Talk: QTalk&lt;/div&gt;&lt;div&gt;-&amp;nbsp; Info: QInfo&lt;/div&gt;&lt;div&gt;-&amp;nbsp; Script: QScript&lt;/div&gt;&lt;div&gt;-&amp;nbsp; Story: QStory&lt;/div&gt;" style="text;strokeColor=none;fillColor=none;align=left;verticalAlign=top;spacingLeft=4;spacingRight=4;overflow=hidden;rotatable=0;points=[[0,0.5],[1,0.5]];portConstraint=eastwest;whiteSpace=wrap;html=1;" parent="EFok8nTwk4CtRk3BqSgn-97" vertex="1">
          <mxGeometry y="26" width="209" height="224" as="geometry" />
        </mxCell>
        <mxCell id="EFok8nTwk4CtRk3BqSgn-99" value="" style="line;strokeWidth=1;fillColor=none;align=left;verticalAlign=middle;spacingTop=-1;spacingLeft=3;spacingRight=3;rotatable=0;labelPosition=right;points=[];portConstraint=eastwest;strokeColor=inherit;" parent="EFok8nTwk4CtRk3BqSgn-97" vertex="1">
          <mxGeometry y="250" width="209" height="8" as="geometry" />
        </mxCell>
        <mxCell id="EFok8nTwk4CtRk3BqSgn-100" value="+ QGame():&lt;div&gt;+ ~QGame():&lt;br&gt;+ OnKeyDown(UINT): BOOL&lt;/div&gt;&lt;div&gt;+ OnDraw(QPainter &amp;amp;): void&lt;/div&gt;&lt;div&gt;+ OnTimer(UINT): void&lt;/div&gt;&lt;div&gt;-&amp;nbsp; RecurScript(): void&lt;/div&gt;&lt;div&gt;-&amp;nbsp; ProcScript(): void&lt;/div&gt;&lt;div&gt;&amp;nbsp;&lt;/div&gt;" style="text;strokeColor=none;fillColor=none;align=left;verticalAlign=top;spacingLeft=4;spacingRight=4;overflow=hidden;rotatable=0;points=[[0,0.5],[1,0.5]];portConstraint=eastwest;whiteSpace=wrap;html=1;" parent="EFok8nTwk4CtRk3BqSgn-97" vertex="1">
          <mxGeometry y="258" width="209" height="112" as="geometry" />
        </mxCell>
        <mxCell id="EFok8nTwk4CtRk3BqSgn-101" value="QMagicTowerDlg" style="swimlane;fontStyle=1;align=center;verticalAlign=top;childLayout=stackLayout;horizontal=1;startSize=26;horizontalStack=0;resizeParent=1;resizeParentMax=0;resizeLast=0;collapsible=1;marginBottom=0;whiteSpace=wrap;html=1;" parent="WIyWlLk6GJQsqaUBKTNV-1" vertex="1">
          <mxGeometry x="307.5" y="170" width="200" height="250" as="geometry">
            <mxRectangle x="342.5" y="180" width="130" height="30" as="alternateBounds" />
          </mxGeometry>
        </mxCell>
        <mxCell id="EFok8nTwk4CtRk3BqSgn-102" value="-&amp;nbsp; pGame: QGame*&lt;div&gt;= m_hIcon: HICON&lt;/div&gt;" style="text;strokeColor=none;fillColor=none;align=left;verticalAlign=top;spacingLeft=4;spacingRight=4;overflow=hidden;rotatable=0;points=[[0,0.5],[1,0.5]];portConstraint=eastwest;whiteSpace=wrap;html=1;" parent="EFok8nTwk4CtRk3BqSgn-101" vertex="1">
          <mxGeometry y="26" width="200" height="34" as="geometry" />
        </mxCell>
        <mxCell id="EFok8nTwk4CtRk3BqSgn-103" value="" style="line;strokeWidth=1;fillColor=none;align=left;verticalAlign=middle;spacingTop=-1;spacingLeft=3;spacingRight=3;rotatable=0;labelPosition=right;points=[];portConstraint=eastwest;strokeColor=inherit;" parent="EFok8nTwk4CtRk3BqSgn-101" vertex="1">
          <mxGeometry y="60" width="200" height="8" as="geometry" />
        </mxCell>
        <mxCell id="EFok8nTwk4CtRk3BqSgn-104" value="+ QMagicToweDlg(QWnd* pParent=NULL):&lt;div&gt;+ PreTranslateMessage(MSG*): BOOL&lt;/div&gt;&lt;div&gt;= DoDataExchange(QDataExange*):&lt;/div&gt;&lt;div&gt;&lt;span style=&quot;background-color: initial;&quot;&gt;&amp;nbsp;void&amp;nbsp;&lt;/span&gt;&lt;/div&gt;&lt;div&gt;&lt;span style=&quot;background-color: initial;&quot;&gt;= OnInitDialog(): BOOL&lt;/span&gt;&lt;/div&gt;&lt;div&gt;&lt;span style=&quot;background-color: initial;&quot;&gt;= OnPaint(): void&lt;/span&gt;&lt;/div&gt;&lt;div&gt;= OnQueryDragIcon(): HCURSOR&lt;/div&gt;&lt;div&gt;= OnTimer(UINT_PTR): void&lt;/div&gt;&lt;div&gt;-&amp;nbsp; OnOK(): void&lt;/div&gt;" style="text;strokeColor=none;fillColor=none;align=left;verticalAlign=top;spacingLeft=4;spacingRight=4;overflow=hidden;rotatable=0;points=[[0,0.5],[1,0.5]];portConstraint=eastwest;whiteSpace=wrap;html=1;" parent="EFok8nTwk4CtRk3BqSgn-101" vertex="1">
          <mxGeometry y="68" width="200" height="182" as="geometry" />
        </mxCell>
        <mxCell id="EFok8nTwk4CtRk3BqSgn-105" value="QMagicTowerApp" style="swimlane;fontStyle=1;align=center;verticalAlign=top;childLayout=stackLayout;horizontal=1;startSize=26;horizontalStack=0;resizeParent=1;resizeParentMax=0;resizeLast=0;collapsible=1;marginBottom=0;whiteSpace=wrap;html=1;" parent="WIyWlLk6GJQsqaUBKTNV-1" vertex="1">
          <mxGeometry x="327.5" y="60" width="160" height="70" as="geometry">
            <mxRectangle x="327.5" y="90" width="140" height="30" as="alternateBounds" />
          </mxGeometry>
        </mxCell>
        <mxCell id="EFok8nTwk4CtRk3BqSgn-107" value="" style="line;strokeWidth=1;fillColor=none;align=left;verticalAlign=middle;spacingTop=-1;spacingLeft=3;spacingRight=3;rotatable=0;labelPosition=right;points=[];portConstraint=eastwest;strokeColor=inherit;" parent="EFok8nTwk4CtRk3BqSgn-105" vertex="1">
          <mxGeometry y="26" width="160" height="8" as="geometry" />
        </mxCell>
        <mxCell id="EFok8nTwk4CtRk3BqSgn-108" value="+ QMagicTowerApp():&lt;div&gt;+ InitInstance(): BOOL&amp;nbsp;&lt;/div&gt;" style="text;strokeColor=none;fillColor=none;align=left;verticalAlign=top;spacingLeft=4;spacingRight=4;overflow=hidden;rotatable=0;points=[[0,0.5],[1,0.5]];portConstraint=eastwest;whiteSpace=wrap;html=1;" parent="EFok8nTwk4CtRk3BqSgn-105" vertex="1">
          <mxGeometry y="34" width="160" height="36" as="geometry" />
        </mxCell>
        <mxCell id="EFok8nTwk4CtRk3BqSgn-111" style="edgeStyle=orthogonalEdgeStyle;rounded=0;orthogonalLoop=1;jettySize=auto;html=1;" parent="WIyWlLk6GJQsqaUBKTNV-1" source="EFok8nTwk4CtRk3BqSgn-110" target="EFok8nTwk4CtRk3BqSgn-105" edge="1">
          <mxGeometry relative="1" as="geometry" />
        </mxCell>
        <mxCell id="EFok8nTwk4CtRk3BqSgn-110" value="QApplication" style="text;html=1;align=center;verticalAlign=middle;whiteSpace=wrap;rounded=0;" parent="WIyWlLk6GJQsqaUBKTNV-1" vertex="1">
          <mxGeometry x="560" y="80" width="80" height="30" as="geometry" />
        </mxCell>
        <mxCell id="EFok8nTwk4CtRk3BqSgn-113" style="edgeStyle=orthogonalEdgeStyle;rounded=0;orthogonalLoop=1;jettySize=auto;html=1;" parent="WIyWlLk6GJQsqaUBKTNV-1" source="EFok8nTwk4CtRk3BqSgn-112" target="EFok8nTwk4CtRk3BqSgn-101" edge="1">
          <mxGeometry relative="1" as="geometry" />
        </mxCell>
        <mxCell id="EFok8nTwk4CtRk3BqSgn-112" value="MainWindow" style="text;html=1;align=center;verticalAlign=middle;whiteSpace=wrap;rounded=0;" parent="WIyWlLk6GJQsqaUBKTNV-1" vertex="1">
          <mxGeometry x="560" y="280" width="77.5" height="30" as="geometry" />
        </mxCell>
        <mxCell id="EFok8nTwk4CtRk3BqSgn-115" value="Use" style="endArrow=open;endSize=12;dashed=1;html=1;rounded=0;entryX=0.5;entryY=0;entryDx=0;entryDy=0;exitX=0.5;exitY=1;exitDx=0;exitDy=0;" parent="WIyWlLk6GJQsqaUBKTNV-1" source="EFok8nTwk4CtRk3BqSgn-105" target="EFok8nTwk4CtRk3BqSgn-101" edge="1">
          <mxGeometry width="160" relative="1" as="geometry">
            <mxPoint x="130" y="110" as="sourcePoint" />
            <mxPoint x="290" y="110" as="targetPoint" />
          </mxGeometry>
        </mxCell>
        <mxCell id="EFok8nTwk4CtRk3BqSgn-116" value="" style="ellipse;html=1;shape=startState;fillColor=#000000;strokeColor=#ff0000;" parent="WIyWlLk6GJQsqaUBKTNV-1" vertex="1">
          <mxGeometry x="392.5" y="10" width="30" height="30" as="geometry" />
        </mxCell>
        <mxCell id="EFok8nTwk4CtRk3BqSgn-117" value="" style="edgeStyle=orthogonalEdgeStyle;html=1;verticalAlign=bottom;endArrow=open;endSize=8;strokeColor=#ff0000;rounded=0;entryX=0.5;entryY=0;entryDx=0;entryDy=0;" parent="WIyWlLk6GJQsqaUBKTNV-1" source="EFok8nTwk4CtRk3BqSgn-116" target="EFok8nTwk4CtRk3BqSgn-105" edge="1">
          <mxGeometry relative="1" as="geometry">
            <mxPoint x="408" y="100" as="targetPoint" />
          </mxGeometry>
        </mxCell>
        <mxCell id="EFok8nTwk4CtRk3BqSgn-118" value="" style="endArrow=diamondThin;endFill=0;endSize=24;html=1;rounded=0;exitX=0.5;exitY=0;exitDx=0;exitDy=0;entryX=0;entryY=0.5;entryDx=0;entryDy=0;" parent="WIyWlLk6GJQsqaUBKTNV-1" source="EFok8nTwk4CtRk3BqSgn-97" target="EFok8nTwk4CtRk3BqSgn-102" edge="1">
          <mxGeometry width="160" relative="1" as="geometry">
            <mxPoint x="130" y="170" as="sourcePoint" />
            <mxPoint x="290" y="170" as="targetPoint" />
          </mxGeometry>
        </mxCell>
        <mxCell id="EFok8nTwk4CtRk3BqSgn-119" value="" style="endArrow=diamondThin;endFill=1;endSize=24;html=1;rounded=0;exitX=1;exitY=0.5;exitDx=0;exitDy=0;entryX=0.25;entryY=0;entryDx=0;entryDy=0;" parent="WIyWlLk6GJQsqaUBKTNV-1" source="EFok8nTwk4CtRk3BqSgn-90" target="EFok8nTwk4CtRk3BqSgn-97" edge="1">
          <mxGeometry width="160" relative="1" as="geometry">
            <mxPoint x="156.5" y="-160" as="sourcePoint" />
            <mxPoint x="150" y="240" as="targetPoint" />
          </mxGeometry>
        </mxCell>
        <mxCell id="EFok8nTwk4CtRk3BqSgn-120" value="" style="endArrow=diamondThin;endFill=1;endSize=24;html=1;rounded=0;exitX=1;exitY=0.5;exitDx=0;exitDy=0;entryX=0;entryY=0.5;entryDx=0;entryDy=0;" parent="WIyWlLk6GJQsqaUBKTNV-1" source="EFok8nTwk4CtRk3BqSgn-57" target="EFok8nTwk4CtRk3BqSgn-98" edge="1">
          <mxGeometry width="160" relative="1" as="geometry">
            <mxPoint x="-95" y="450" as="sourcePoint" />
            <mxPoint x="60" y="430" as="targetPoint" />
          </mxGeometry>
        </mxCell>
        <mxCell id="EFok8nTwk4CtRk3BqSgn-122" value="" style="endArrow=diamondThin;endFill=1;endSize=24;html=1;rounded=0;exitX=1;exitY=0;exitDx=0;exitDy=0;entryX=0;entryY=0.5;entryDx=0;entryDy=0;" parent="WIyWlLk6GJQsqaUBKTNV-1" source="EFok8nTwk4CtRk3BqSgn-93" target="EFok8nTwk4CtRk3BqSgn-98" edge="1">
          <mxGeometry width="160" relative="1" as="geometry">
            <mxPoint x="-30.659999999999854" y="593.8" as="sourcePoint" />
            <mxPoint x="60" y="560" as="targetPoint" />
          </mxGeometry>
        </mxCell>
        <mxCell id="EFok8nTwk4CtRk3BqSgn-123" value="" style="endArrow=diamondThin;endFill=1;endSize=24;html=1;rounded=0;entryX=1;entryY=0.5;entryDx=0;entryDy=0;exitX=0;exitY=0.5;exitDx=0;exitDy=0;" parent="WIyWlLk6GJQsqaUBKTNV-1" source="EFok8nTwk4CtRk3BqSgn-69" target="EFok8nTwk4CtRk3BqSgn-98" edge="1">
          <mxGeometry width="160" relative="1" as="geometry">
            <mxPoint x="160" y="650" as="sourcePoint" />
            <mxPoint x="320" y="650" as="targetPoint" />
          </mxGeometry>
        </mxCell>
        <mxCell id="EFok8nTwk4CtRk3BqSgn-124" value="" style="endArrow=diamondThin;endFill=1;endSize=24;html=1;rounded=0;exitX=1;exitY=0.5;exitDx=0;exitDy=0;entryX=0;entryY=0;entryDx=0;entryDy=0;" parent="WIyWlLk6GJQsqaUBKTNV-1" source="EFok8nTwk4CtRk3BqSgn-82" target="EFok8nTwk4CtRk3BqSgn-97" edge="1">
          <mxGeometry width="160" relative="1" as="geometry">
            <mxPoint x="-110" y="330" as="sourcePoint" />
            <mxPoint x="50" y="330" as="targetPoint" />
          </mxGeometry>
        </mxCell>
        <mxCell id="EFok8nTwk4CtRk3BqSgn-125" value="" style="endArrow=diamondThin;endFill=1;endSize=24;html=1;rounded=0;exitX=0;exitY=0;exitDx=0;exitDy=0;entryX=1;entryY=0.5;entryDx=0;entryDy=0;" parent="WIyWlLk6GJQsqaUBKTNV-1" source="EFok8nTwk4CtRk3BqSgn-64" target="EFok8nTwk4CtRk3BqSgn-100" edge="1">
          <mxGeometry width="160" relative="1" as="geometry">
            <mxPoint x="140" y="770" as="sourcePoint" />
            <mxPoint x="300" y="770" as="targetPoint" />
          </mxGeometry>
        </mxCell>
        <mxCell id="EFok8nTwk4CtRk3BqSgn-126" value="" style="endArrow=diamondThin;endFill=1;endSize=24;html=1;rounded=0;exitX=1;exitY=0.5;exitDx=0;exitDy=0;entryX=0.5;entryY=0;entryDx=0;entryDy=0;" parent="WIyWlLk6GJQsqaUBKTNV-1" source="EFok8nTwk4CtRk3BqSgn-53" target="EFok8nTwk4CtRk3BqSgn-97" edge="1">
          <mxGeometry width="160" relative="1" as="geometry">
            <mxPoint x="132.5" y="260" as="sourcePoint" />
            <mxPoint x="292.5" y="260" as="targetPoint" />
            <Array as="points">
              <mxPoint x="270" y="210" />
            </Array>
          </mxGeometry>
        </mxCell>
        <mxCell id="EFok8nTwk4CtRk3BqSgn-128" value="" style="endArrow=diamondThin;endFill=0;endSize=24;html=1;rounded=0;exitX=0.5;exitY=0;exitDx=0;exitDy=0;entryX=0;entryY=0.5;entryDx=0;entryDy=0;" parent="WIyWlLk6GJQsqaUBKTNV-1" source="EFok8nTwk4CtRk3BqSgn-12" target="EFok8nTwk4CtRk3BqSgn-57" edge="1">
          <mxGeometry width="160" relative="1" as="geometry">
            <mxPoint x="-280" y="660" as="sourcePoint" />
            <mxPoint x="-170" y="640" as="targetPoint" />
          </mxGeometry>
        </mxCell>
        <mxCell id="EFok8nTwk4CtRk3BqSgn-129" value="" style="endArrow=diamondThin;endFill=0;endSize=24;html=1;rounded=0;exitX=0.25;exitY=0;exitDx=0;exitDy=0;entryX=1;entryY=0;entryDx=0;entryDy=0;" parent="WIyWlLk6GJQsqaUBKTNV-1" source="EFok8nTwk4CtRk3BqSgn-24" target="EFok8nTwk4CtRk3BqSgn-68" edge="1">
          <mxGeometry width="160" relative="1" as="geometry">
            <mxPoint x="502.5" y="430" as="sourcePoint" />
            <mxPoint x="672.5" y="390" as="targetPoint" />
          </mxGeometry>
        </mxCell>
        <mxCell id="EFok8nTwk4CtRk3BqSgn-130" value="" style="endArrow=diamondThin;endFill=0;endSize=24;html=1;rounded=0;entryX=0.5;entryY=1;entryDx=0;entryDy=0;exitX=0;exitY=0;exitDx=0;exitDy=0;" parent="WIyWlLk6GJQsqaUBKTNV-1" source="EFok8nTwk4CtRk3BqSgn-28" target="EFok8nTwk4CtRk3BqSgn-20" edge="1">
          <mxGeometry width="160" relative="1" as="geometry">
            <mxPoint x="690" y="590" as="sourcePoint" />
            <mxPoint x="850" y="590" as="targetPoint" />
          </mxGeometry>
        </mxCell>
        <mxCell id="EFok8nTwk4CtRk3BqSgn-131" value="" style="endArrow=block;startArrow=block;endFill=1;startFill=1;html=1;rounded=0;entryX=0.5;entryY=1;entryDx=0;entryDy=0;exitX=0;exitY=0;exitDx=0;exitDy=0;" parent="WIyWlLk6GJQsqaUBKTNV-1" source="EFok8nTwk4CtRk3BqSgn-38" target="EFok8nTwk4CtRk3BqSgn-46" edge="1">
          <mxGeometry width="160" relative="1" as="geometry">
            <mxPoint x="-140" y="930" as="sourcePoint" />
            <mxPoint x="20" y="930" as="targetPoint" />
          </mxGeometry>
        </mxCell>
        <mxCell id="EFok8nTwk4CtRk3BqSgn-133" value="" style="endArrow=diamondThin;endFill=0;endSize=24;html=1;rounded=0;entryX=1;entryY=0;entryDx=0;entryDy=0;exitX=0;exitY=0;exitDx=0;exitDy=0;" parent="WIyWlLk6GJQsqaUBKTNV-1" source="EFok8nTwk4CtRk3BqSgn-42" target="EFok8nTwk4CtRk3BqSgn-77" edge="1">
          <mxGeometry width="160" relative="1" as="geometry">
            <mxPoint x="-150" y="1020" as="sourcePoint" />
            <mxPoint x="10" y="1020" as="targetPoint" />
          </mxGeometry>
        </mxCell>
        <mxCell id="EFok8nTwk4CtRk3BqSgn-134" value="" style="endArrow=diamondThin;endFill=0;endSize=24;html=1;rounded=0;exitX=0;exitY=0;exitDx=0;exitDy=0;entryX=0;entryY=0.5;entryDx=0;entryDy=0;" parent="WIyWlLk6GJQsqaUBKTNV-1" source="EFok8nTwk4CtRk3BqSgn-77" target="EFok8nTwk4CtRk3BqSgn-82" edge="1">
          <mxGeometry width="160" relative="1" as="geometry">
            <mxPoint x="-590" y="720" as="sourcePoint" />
            <mxPoint x="-430" y="230" as="targetPoint" />
            <Array as="points">
              <mxPoint x="-430" y="820" />
              <mxPoint x="-430" y="220" />
            </Array>
          </mxGeometry>
        </mxCell>
        <mxCell id="EFok8nTwk4CtRk3BqSgn-137" style="edgeStyle=orthogonalEdgeStyle;rounded=0;orthogonalLoop=1;jettySize=auto;html=1;exitX=0.5;exitY=0;exitDx=0;exitDy=0;entryX=0;entryY=0.5;entryDx=0;entryDy=0;" parent="WIyWlLk6GJQsqaUBKTNV-1" source="EFok8nTwk4CtRk3BqSgn-135" target="EFok8nTwk4CtRk3BqSgn-100" edge="1">
          <mxGeometry relative="1" as="geometry" />
        </mxCell>
        <mxCell id="EFok8nTwk4CtRk3BqSgn-135" value="" style="ellipse;html=1;shape=endState;fillColor=#000000;strokeColor=#ff0000;" parent="WIyWlLk6GJQsqaUBKTNV-1" vertex="1">
          <mxGeometry x="60" y="730" width="30" height="30" as="geometry" />
        </mxCell>
        <mxCell id="EFok8nTwk4CtRk3BqSgn-139" value="" style="endArrow=diamondThin;endFill=1;endSize=24;html=1;rounded=0;exitX=0.25;exitY=0;exitDx=0;exitDy=0;entryX=0.446;entryY=0.983;entryDx=0;entryDy=0;entryPerimeter=0;" parent="WIyWlLk6GJQsqaUBKTNV-1" source="EFok8nTwk4CtRk3BqSgn-85" target="EFok8nTwk4CtRk3BqSgn-100" edge="1">
          <mxGeometry width="160" relative="1" as="geometry">
            <mxPoint x="130" y="720" as="sourcePoint" />
            <mxPoint x="290" y="720" as="targetPoint" />
          </mxGeometry>
        </mxCell>
        <mxCell id="EFok8nTwk4CtRk3BqSgn-142" value="" style="endArrow=diamondThin;endFill=0;endSize=24;html=1;rounded=0;exitX=1;exitY=0;exitDx=0;exitDy=0;entryX=0;entryY=0;entryDx=0;entryDy=0;" parent="WIyWlLk6GJQsqaUBKTNV-1" source="EFok8nTwk4CtRk3BqSgn-38" target="EFok8nTwk4CtRk3BqSgn-72" edge="1">
          <mxGeometry width="160" relative="1" as="geometry">
            <mxPoint x="330" y="1000" as="sourcePoint" />
            <mxPoint x="490" y="1000" as="targetPoint" />
          </mxGeometry>
        </mxCell>
        <mxCell id="EFok8nTwk4CtRk3BqSgn-143" value="" style="endArrow=diamondThin;endFill=0;endSize=24;html=1;rounded=0;exitX=0.005;exitY=0.994;exitDx=0;exitDy=0;exitPerimeter=0;entryX=0;entryY=0;entryDx=0;entryDy=0;" parent="WIyWlLk6GJQsqaUBKTNV-1" source="EFok8nTwk4CtRk3BqSgn-75" target="EFok8nTwk4CtRk3BqSgn-81" edge="1">
          <mxGeometry width="160" relative="1" as="geometry">
            <mxPoint x="-100" y="1280" as="sourcePoint" />
            <mxPoint x="-460" y="120" as="targetPoint" />
            <Array as="points">
              <mxPoint x="-470" y="1187" />
              <mxPoint x="-460" y="190" />
            </Array>
          </mxGeometry>
        </mxCell>
        <mxCell id="EFok8nTwk4CtRk3BqSgn-144" value="" style="endArrow=diamondThin;endFill=0;endSize=24;html=1;rounded=0;exitX=0;exitY=0;exitDx=0;exitDy=0;entryX=1;entryY=0.5;entryDx=0;entryDy=0;" parent="WIyWlLk6GJQsqaUBKTNV-1" source="EFok8nTwk4CtRk3BqSgn-8" target="EFok8nTwk4CtRk3BqSgn-88" edge="1">
          <mxGeometry width="160" relative="1" as="geometry">
            <mxPoint x="330" y="860" as="sourcePoint" />
            <mxPoint x="490" y="860" as="targetPoint" />
          </mxGeometry>
        </mxCell>
        <mxCell id="EFok8nTwk4CtRk3BqSgn-145" value="" style="endArrow=diamondThin;endFill=1;endSize=24;html=1;rounded=0;exitX=0.25;exitY=1;exitDx=0;exitDy=0;entryX=0;entryY=0;entryDx=0;entryDy=0;" parent="WIyWlLk6GJQsqaUBKTNV-1" source="EFok8nTwk4CtRk3BqSgn-8" target="EFok8nTwk4CtRk3BqSgn-81" edge="1">
          <mxGeometry width="160" relative="1" as="geometry">
            <mxPoint x="460" y="1100" as="sourcePoint" />
            <mxPoint x="-550" y="490" as="targetPoint" />
            <Array as="points">
              <mxPoint x="360" y="1210" />
              <mxPoint x="-510" y="1210" />
              <mxPoint x="-510" y="160" />
            </Array>
          </mxGeometry>
        </mxCell>
        <mxCell id="EFok8nTwk4CtRk3BqSgn-146" value="" style="endArrow=diamondThin;endFill=0;endSize=24;html=1;rounded=0;entryX=0.723;entryY=1.012;entryDx=0;entryDy=0;entryPerimeter=0;exitX=0;exitY=0;exitDx=0;exitDy=0;" parent="WIyWlLk6GJQsqaUBKTNV-1" source="EFok8nTwk4CtRk3BqSgn-8" target="EFok8nTwk4CtRk3BqSgn-59" edge="1">
          <mxGeometry width="160" relative="1" as="geometry">
            <mxPoint x="100" y="850" as="sourcePoint" />
            <mxPoint x="260" y="850" as="targetPoint" />
            <Array as="points">
              <mxPoint x="70" y="850" />
            </Array>
          </mxGeometry>
        </mxCell>
        <mxCell id="EFok8nTwk4CtRk3BqSgn-147" value="" style="endArrow=diamondThin;endFill=0;endSize=24;html=1;rounded=0;exitX=1;exitY=0.5;exitDx=0;exitDy=0;entryX=0.5;entryY=0;entryDx=0;entryDy=0;" parent="WIyWlLk6GJQsqaUBKTNV-1" source="EFok8nTwk4CtRk3BqSgn-11" target="EFok8nTwk4CtRk3BqSgn-89" edge="1">
          <mxGeometry width="160" relative="1" as="geometry">
            <mxPoint x="620" y="900" as="sourcePoint" />
            <mxPoint x="-30" y="-50" as="targetPoint" />
            <Array as="points">
              <mxPoint x="740" y="970" />
              <mxPoint x="730" y="-50" />
              <mxPoint x="20" y="-50" />
            </Array>
          </mxGeometry>
        </mxCell>
        <mxCell id="EFok8nTwk4CtRk3BqSgn-148" value="" style="endArrow=diamondThin;endFill=0;endSize=24;html=1;rounded=0;entryX=0.034;entryY=0.048;entryDx=0;entryDy=0;entryPerimeter=0;exitX=0.52;exitY=0.998;exitDx=0;exitDy=0;exitPerimeter=0;" parent="WIyWlLk6GJQsqaUBKTNV-1" source="EFok8nTwk4CtRk3BqSgn-39" target="EFok8nTwk4CtRk3BqSgn-89" edge="1">
          <mxGeometry width="160" relative="1" as="geometry">
            <mxPoint x="-50" y="1240" as="sourcePoint" />
            <mxPoint x="-60" y="-70" as="targetPoint" />
            <Array as="points">
              <mxPoint x="-54" y="1240" />
              <mxPoint x="760" y="1240" />
              <mxPoint x="750" y="-70" />
              <mxPoint x="-54" y="-70" />
            </Array>
          </mxGeometry>
        </mxCell>
        <mxCell id="EFok8nTwk4CtRk3BqSgn-149" value="QTile" style="swimlane;fontStyle=1;align=center;verticalAlign=top;childLayout=stackLayout;horizontal=1;startSize=26;horizontalStack=0;resizeParent=1;resizeParentMax=0;resizeLast=0;collapsible=1;marginBottom=0;whiteSpace=wrap;html=1;" parent="WIyWlLk6GJQsqaUBKTNV-1" vertex="1" collapsed="1">
          <mxGeometry x="-120" y="290" width="70" height="30" as="geometry">
            <mxRectangle x="-870" y="390" width="210" height="170" as="alternateBounds" />
          </mxGeometry>
        </mxCell>
        <mxCell id="EFok8nTwk4CtRk3BqSgn-150" value="-&amp;nbsp; (static)TileData: BYTE[ ][ ][ ][3]&lt;div&gt;-&amp;nbsp; bmif: BITMAPINFO&lt;/div&gt;" style="text;strokeColor=none;fillColor=none;align=left;verticalAlign=top;spacingLeft=4;spacingRight=4;overflow=hidden;rotatable=0;points=[[0,0.5],[1,0.5]];portConstraint=eastwest;whiteSpace=wrap;html=1;" parent="EFok8nTwk4CtRk3BqSgn-149" vertex="1">
          <mxGeometry y="26" width="210" height="34" as="geometry" />
        </mxCell>
        <mxCell id="EFok8nTwk4CtRk3BqSgn-151" value="" style="line;strokeWidth=1;fillColor=none;align=left;verticalAlign=middle;spacingTop=-1;spacingLeft=3;spacingRight=3;rotatable=0;labelPosition=right;points=[];portConstraint=eastwest;strokeColor=inherit;" parent="EFok8nTwk4CtRk3BqSgn-149" vertex="1">
          <mxGeometry y="60" width="210" height="8" as="geometry" />
        </mxCell>
        <mxCell id="EFok8nTwk4CtRk3BqSgn-152" value="+ QTile():&amp;nbsp;&lt;div&gt;+ ~QTile():&lt;/div&gt;&lt;div&gt;+ Draw(QPainter&amp;amp;,int,int,IDTILE idTile = TILE_FLOOR): void&lt;/div&gt;&lt;div&gt;+ DrawEx(QPainter&amp;amp;,int,int,IDTILE idTile,IDTILE idRoleTile): void&lt;/div&gt;&lt;div&gt;&lt;br&gt;&lt;div&gt;&lt;br&gt;&lt;/div&gt;&lt;/div&gt;" style="text;strokeColor=none;fillColor=none;align=left;verticalAlign=top;spacingLeft=4;spacingRight=4;overflow=hidden;rotatable=0;points=[[0,0.5],[1,0.5]];portConstraint=eastwest;whiteSpace=wrap;html=1;" parent="EFok8nTwk4CtRk3BqSgn-149" vertex="1">
          <mxGeometry y="68" width="210" height="102" as="geometry" />
        </mxCell>
        <mxCell id="EFok8nTwk4CtRk3BqSgn-153" value="" style="endArrow=diamondThin;endFill=0;endSize=24;html=1;rounded=0;exitX=0.5;exitY=1;exitDx=0;exitDy=0;entryX=0.25;entryY=0;entryDx=0;entryDy=0;" parent="WIyWlLk6GJQsqaUBKTNV-1" source="EFok8nTwk4CtRk3BqSgn-149" target="EFok8nTwk4CtRk3BqSgn-93" edge="1">
          <mxGeometry width="160" relative="1" as="geometry">
            <mxPoint x="-100" y="340" as="sourcePoint" />
            <mxPoint x="60" y="340" as="targetPoint" />
          </mxGeometry>
        </mxCell>
        <mxCell id="EFok8nTwk4CtRk3BqSgn-154" value="QInfoEdit" style="swimlane;fontStyle=1;align=center;verticalAlign=top;childLayout=stackLayout;horizontal=1;startSize=26;horizontalStack=0;resizeParent=1;resizeParentMax=0;resizeLast=0;collapsible=1;marginBottom=0;whiteSpace=wrap;html=1;" parent="WIyWlLk6GJQsqaUBKTNV-1" vertex="1">
          <mxGeometry x="1180" y="386" width="140" height="140" as="geometry" />
        </mxCell>
        <mxCell id="EFok8nTwk4CtRk3BqSgn-155" value="-&amp;nbsp; m_nID: UINT&amp;nbsp;" style="text;strokeColor=none;fillColor=none;align=left;verticalAlign=top;spacingLeft=4;spacingRight=4;overflow=hidden;rotatable=0;points=[[0,0.5],[1,0.5]];portConstraint=eastwest;whiteSpace=wrap;html=1;" parent="EFok8nTwk4CtRk3BqSgn-154" vertex="1">
          <mxGeometry y="26" width="140" height="24" as="geometry" />
        </mxCell>
        <mxCell id="EFok8nTwk4CtRk3BqSgn-156" value="" style="line;strokeWidth=1;fillColor=none;align=left;verticalAlign=middle;spacingTop=-1;spacingLeft=3;spacingRight=3;rotatable=0;labelPosition=right;points=[];portConstraint=eastwest;strokeColor=inherit;" parent="EFok8nTwk4CtRk3BqSgn-154" vertex="1">
          <mxGeometry y="50" width="140" height="10" as="geometry" />
        </mxCell>
        <mxCell id="EFok8nTwk4CtRk3BqSgn-157" value="+ QInfoEdit():&lt;div&gt;+ QInfoEdit(UINT):&lt;br&gt;&lt;div&gt;+ ~QInfoEdit():&lt;/div&gt;&lt;div&gt;+ GetID(): UINT&lt;/div&gt;&lt;div&gt;+ OnChange(): void&lt;/div&gt;&lt;div&gt;&lt;br&gt;&lt;/div&gt;&lt;/div&gt;" style="text;strokeColor=none;fillColor=none;align=left;verticalAlign=top;spacingLeft=4;spacingRight=4;overflow=hidden;rotatable=0;points=[[0,0.5],[1,0.5]];portConstraint=eastwest;whiteSpace=wrap;html=1;" parent="EFok8nTwk4CtRk3BqSgn-154" vertex="1">
          <mxGeometry y="60" width="140" height="80" as="geometry" />
        </mxCell>
        <mxCell id="EFok8nTwk4CtRk3BqSgn-158" value="QMapEditApp" style="swimlane;fontStyle=1;align=center;verticalAlign=top;childLayout=stackLayout;horizontal=1;startSize=26;horizontalStack=0;resizeParent=1;resizeParentMax=0;resizeLast=0;collapsible=1;marginBottom=0;whiteSpace=wrap;html=1;" parent="WIyWlLk6GJQsqaUBKTNV-1" vertex="1">
          <mxGeometry x="880" y="60" width="150" height="70" as="geometry" />
        </mxCell>
        <mxCell id="EFok8nTwk4CtRk3BqSgn-160" value="" style="line;strokeWidth=1;fillColor=none;align=left;verticalAlign=middle;spacingTop=-1;spacingLeft=3;spacingRight=3;rotatable=0;labelPosition=right;points=[];portConstraint=eastwest;strokeColor=inherit;" parent="EFok8nTwk4CtRk3BqSgn-158" vertex="1">
          <mxGeometry y="26" width="150" height="8" as="geometry" />
        </mxCell>
        <mxCell id="EFok8nTwk4CtRk3BqSgn-161" value="+ QMapEditApp():&lt;div&gt;+ InitInstance(): BOOL&amp;nbsp;&lt;/div&gt;" style="text;strokeColor=none;fillColor=none;align=left;verticalAlign=top;spacingLeft=4;spacingRight=4;overflow=hidden;rotatable=0;points=[[0,0.5],[1,0.5]];portConstraint=eastwest;whiteSpace=wrap;html=1;" parent="EFok8nTwk4CtRk3BqSgn-158" vertex="1">
          <mxGeometry y="34" width="150" height="36" as="geometry" />
        </mxCell>
        <mxCell id="EFok8nTwk4CtRk3BqSgn-162" value="QMapEditDlg" style="swimlane;fontStyle=1;align=center;verticalAlign=top;childLayout=stackLayout;horizontal=1;startSize=26;horizontalStack=0;resizeParent=1;resizeParentMax=0;resizeLast=0;collapsible=1;marginBottom=0;whiteSpace=wrap;html=1;" parent="WIyWlLk6GJQsqaUBKTNV-1" vertex="1">
          <mxGeometry x="840" y="170" width="250" height="680" as="geometry" />
        </mxCell>
        <mxCell id="EFok8nTwk4CtRk3BqSgn-163" value="# m_hIcon: HICON&lt;div&gt;-&amp;nbsp; ImageBuf: BYTE[ ][ ][ ][3]&lt;/div&gt;&lt;div&gt;-&amp;nbsp; MapBuf: BYTE[ ][ ][ ]&lt;/div&gt;&lt;div&gt;-&amp;nbsp; NpcBuf: NPCINFO[ ]&lt;/div&gt;&lt;div&gt;-&amp;nbsp; LeftScrollBar: QScrollBar&lt;/div&gt;&lt;div&gt;-&amp;nbsp; pButton: QSelButton*[ ]&lt;/div&gt;&lt;div&gt;-&amp;nbsp; pEdit: QInfoEdit*[ ]&lt;/div&gt;&lt;div&gt;-&amp;nbsp; LeftRect: QRect&lt;/div&gt;&lt;div&gt;-&amp;nbsp; LeftScrollRect: QRect&lt;/div&gt;&lt;div&gt;-&amp;nbsp; MiddleRect: QRect&lt;/div&gt;&lt;div&gt;-&amp;nbsp; RightRect: QRect&lt;/div&gt;&lt;div&gt;-&amp;nbsp; NpcRect: QRect&lt;/div&gt;&lt;div&gt;-&amp;nbsp; NpcBorderRect: QRect&lt;/div&gt;&lt;div&gt;-&amp;nbsp; MapRect: QRect&lt;/div&gt;&lt;div&gt;-&amp;nbsp; MapBorderRect: QRect&lt;/div&gt;&lt;div&gt;-&amp;nbsp; SelectRect: QRect&lt;/div&gt;&lt;div&gt;-&amp;nbsp; nSelectIndex: int&lt;/div&gt;&lt;div&gt;-&amp;nbsp; nCurLayer: int&lt;/div&gt;&lt;div&gt;-&amp;nbsp; LeftBegin: int&lt;/div&gt;&lt;div&gt;-&amp;nbsp; nLeftPicWidth: int&lt;/div&gt;&lt;div&gt;-&amp;nbsp; nLeftPicHeight: int&lt;/div&gt;&lt;div&gt;-&amp;nbsp; bLBtnDown: bool&lt;/div&gt;&lt;div&gt;-&amp;nbsp; bRBtnDown: bool&lt;br&gt;&lt;/div&gt;&lt;div&gt;-&amp;nbsp; bLeftRefresh: bool&lt;br&gt;&lt;/div&gt;&lt;div&gt;-&amp;nbsp; bRightRefresh: bool&lt;br&gt;&lt;/div&gt;" style="text;strokeColor=none;fillColor=none;align=left;verticalAlign=top;spacingLeft=4;spacingRight=4;overflow=hidden;rotatable=0;points=[[0,0.5],[1,0.5]];portConstraint=eastwest;whiteSpace=wrap;html=1;" parent="EFok8nTwk4CtRk3BqSgn-162" vertex="1">
          <mxGeometry y="26" width="250" height="364" as="geometry" />
        </mxCell>
        <mxCell id="EFok8nTwk4CtRk3BqSgn-164" value="" style="line;strokeWidth=1;fillColor=none;align=left;verticalAlign=middle;spacingTop=-1;spacingLeft=3;spacingRight=3;rotatable=0;labelPosition=right;points=[];portConstraint=eastwest;strokeColor=inherit;" parent="EFok8nTwk4CtRk3BqSgn-162" vertex="1">
          <mxGeometry y="390" width="250" height="8" as="geometry" />
        </mxCell>
        <mxCell id="EFok8nTwk4CtRk3BqSgn-165" value="+ QMapEditDlg(QWnd* pParent=NULL):&lt;div&gt;# DoDataExchange(QDataExchange*): void&lt;/div&gt;&lt;div&gt;# OnCommand(WPARAM,LPARAM): BOOL&lt;/div&gt;&lt;div&gt;# OnInitDialog(): BOOL&lt;/div&gt;&lt;div&gt;# OnPaint(): void&lt;/div&gt;&lt;div&gt;# OnQueryDragIcon(): HCURSOR&lt;/div&gt;&lt;div&gt;# OnVScroll(UINT,UINT,QScrollBar*): void&lt;/div&gt;&lt;div&gt;# OnMouseMove(UINT,QPoint): void&lt;/div&gt;&lt;div&gt;# OnLButtonDown(UINT,QPoint): void&lt;/div&gt;&lt;div&gt;# OnLButtonUp(UINT,QPoint): void&lt;/div&gt;&lt;div&gt;# OnLButtonDblClk(UINT,QPoint): void&lt;/div&gt;&lt;div&gt;# OnRButtonDown(UINT,QPoint): void&lt;/div&gt;&lt;div&gt;# OnRButtonUp(UINT,QPoint): void&lt;/div&gt;&lt;div&gt;-&amp;nbsp; ReadImageFile(): void&lt;/div&gt;&lt;div&gt;-&amp;nbsp; WriteImageFile(): void&lt;/div&gt;&lt;div&gt;-&amp;nbsp; ReadMapFile(): void&lt;/div&gt;&lt;div&gt;-&amp;nbsp; WriteMapFile(): void&lt;/div&gt;&lt;div&gt;-&amp;nbsp; ReadNpcFile(): void&lt;/div&gt;&lt;div&gt;-&amp;nbsp; WriteNpcFile(): void&lt;/div&gt;&lt;div&gt;&amp;nbsp;&lt;/div&gt;" style="text;strokeColor=none;fillColor=none;align=left;verticalAlign=top;spacingLeft=4;spacingRight=4;overflow=hidden;rotatable=0;points=[[0,0.5],[1,0.5]];portConstraint=eastwest;whiteSpace=wrap;html=1;" parent="EFok8nTwk4CtRk3BqSgn-162" vertex="1">
          <mxGeometry y="398" width="250" height="282" as="geometry" />
        </mxCell>
        <mxCell id="EFok8nTwk4CtRk3BqSgn-166" value="QSelButton" style="swimlane;fontStyle=1;align=center;verticalAlign=top;childLayout=stackLayout;horizontal=1;startSize=26;horizontalStack=0;resizeParent=1;resizeParentMax=0;resizeLast=0;collapsible=1;marginBottom=0;whiteSpace=wrap;html=1;" parent="WIyWlLk6GJQsqaUBKTNV-1" vertex="1">
          <mxGeometry x="1155" y="190" width="190" height="150" as="geometry" />
        </mxCell>
        <mxCell id="EFok8nTwk4CtRk3BqSgn-167" value="-&amp;nbsp; m_nID: int&lt;div&gt;-&amp;nbsp; (static)nSelect: int&lt;/div&gt;" style="text;strokeColor=none;fillColor=none;align=left;verticalAlign=top;spacingLeft=4;spacingRight=4;overflow=hidden;rotatable=0;points=[[0,0.5],[1,0.5]];portConstraint=eastwest;whiteSpace=wrap;html=1;" parent="EFok8nTwk4CtRk3BqSgn-166" vertex="1">
          <mxGeometry y="26" width="190" height="34" as="geometry" />
        </mxCell>
        <mxCell id="EFok8nTwk4CtRk3BqSgn-168" value="" style="line;strokeWidth=1;fillColor=none;align=left;verticalAlign=middle;spacingTop=-1;spacingLeft=3;spacingRight=3;rotatable=0;labelPosition=right;points=[];portConstraint=eastwest;strokeColor=inherit;" parent="EFok8nTwk4CtRk3BqSgn-166" vertex="1">
          <mxGeometry y="60" width="190" height="8" as="geometry" />
        </mxCell>
        <mxCell id="EFok8nTwk4CtRk3BqSgn-169" value="+ QSelButton():&lt;div&gt;+ QSelButton(UINT):&lt;/div&gt;&lt;div&gt;+ ~QSelButton():&lt;/div&gt;&lt;div&gt;+ OnLButtonDown(UINT,QPoint):&lt;br&gt;&amp;nbsp;void&lt;br&gt;&lt;div&gt;&amp;nbsp;&lt;/div&gt;&lt;/div&gt;" style="text;strokeColor=none;fillColor=none;align=left;verticalAlign=top;spacingLeft=4;spacingRight=4;overflow=hidden;rotatable=0;points=[[0,0.5],[1,0.5]];portConstraint=eastwest;whiteSpace=wrap;html=1;" parent="EFok8nTwk4CtRk3BqSgn-166" vertex="1">
          <mxGeometry y="68" width="190" height="82" as="geometry" />
        </mxCell>
        <mxCell id="EFok8nTwk4CtRk3BqSgn-170" style="edgeStyle=orthogonalEdgeStyle;rounded=0;orthogonalLoop=1;jettySize=auto;html=1;exitX=1;exitY=0.5;exitDx=0;exitDy=0;entryX=-0.006;entryY=0.051;entryDx=0;entryDy=0;entryPerimeter=0;" parent="WIyWlLk6GJQsqaUBKTNV-1" source="EFok8nTwk4CtRk3BqSgn-110" target="EFok8nTwk4CtRk3BqSgn-161" edge="1">
          <mxGeometry relative="1" as="geometry" />
        </mxCell>
        <mxCell id="EFok8nTwk4CtRk3BqSgn-171" style="edgeStyle=orthogonalEdgeStyle;rounded=0;orthogonalLoop=1;jettySize=auto;html=1;exitX=1;exitY=0.5;exitDx=0;exitDy=0;entryX=0.01;entryY=0.274;entryDx=0;entryDy=0;entryPerimeter=0;" parent="WIyWlLk6GJQsqaUBKTNV-1" source="EFok8nTwk4CtRk3BqSgn-112" target="EFok8nTwk4CtRk3BqSgn-163" edge="1">
          <mxGeometry relative="1" as="geometry" />
        </mxCell>
        <mxCell id="EFok8nTwk4CtRk3BqSgn-173" value="" style="endArrow=diamondThin;endFill=0;endSize=24;html=1;rounded=0;exitX=0;exitY=0.5;exitDx=0;exitDy=0;entryX=1.001;entryY=0.237;entryDx=0;entryDy=0;entryPerimeter=0;" parent="WIyWlLk6GJQsqaUBKTNV-1" source="EFok8nTwk4CtRk3BqSgn-167" target="EFok8nTwk4CtRk3BqSgn-163" edge="1">
          <mxGeometry width="160" relative="1" as="geometry">
            <mxPoint x="1160" y="120" as="sourcePoint" />
            <mxPoint x="1300" y="120" as="targetPoint" />
          </mxGeometry>
        </mxCell>
        <mxCell id="EFok8nTwk4CtRk3BqSgn-174" value="" style="endArrow=diamondThin;endFill=0;endSize=24;html=1;rounded=0;exitX=0;exitY=0;exitDx=0;exitDy=0;entryX=1;entryY=0.5;entryDx=0;entryDy=0;" parent="WIyWlLk6GJQsqaUBKTNV-1" source="EFok8nTwk4CtRk3BqSgn-154" target="EFok8nTwk4CtRk3BqSgn-163" edge="1">
          <mxGeometry width="160" relative="1" as="geometry">
            <mxPoint x="1170" y="550" as="sourcePoint" />
            <mxPoint x="1330" y="550" as="targetPoint" />
          </mxGeometry>
        </mxCell>
        <mxCell id="EFok8nTwk4CtRk3BqSgn-178" value="" style="ellipse;html=1;shape=startState;fillColor=#000000;strokeColor=#ff0000;" parent="WIyWlLk6GJQsqaUBKTNV-1" vertex="1">
          <mxGeometry x="940" y="-10" width="30" height="30" as="geometry" />
        </mxCell>
        <mxCell id="EFok8nTwk4CtRk3BqSgn-179" value="" style="edgeStyle=orthogonalEdgeStyle;html=1;verticalAlign=bottom;endArrow=open;endSize=8;strokeColor=#ff0000;rounded=0;entryX=0.5;entryY=0;entryDx=0;entryDy=0;" parent="WIyWlLk6GJQsqaUBKTNV-1" source="EFok8nTwk4CtRk3BqSgn-178" target="EFok8nTwk4CtRk3BqSgn-158" edge="1">
          <mxGeometry relative="1" as="geometry">
            <mxPoint x="905" y="30" as="targetPoint" />
          </mxGeometry>
        </mxCell>
        <mxCell id="EFok8nTwk4CtRk3BqSgn-180" value="" style="ellipse;html=1;shape=endState;fillColor=#000000;strokeColor=#ff0000;" parent="WIyWlLk6GJQsqaUBKTNV-1" vertex="1">
          <mxGeometry x="1080" y="97" width="30" height="30" as="geometry" />
        </mxCell>
        <mxCell id="EFok8nTwk4CtRk3BqSgn-181" style="edgeStyle=orthogonalEdgeStyle;rounded=0;orthogonalLoop=1;jettySize=auto;html=1;exitX=0;exitY=0.5;exitDx=0;exitDy=0;entryX=1;entryY=0.5;entryDx=0;entryDy=0;" parent="WIyWlLk6GJQsqaUBKTNV-1" source="EFok8nTwk4CtRk3BqSgn-180" target="EFok8nTwk4CtRk3BqSgn-161" edge="1">
          <mxGeometry relative="1" as="geometry" />
        </mxCell>
        <mxCell id="EFok8nTwk4CtRk3BqSgn-182" value="Use" style="endArrow=open;endSize=12;dashed=1;html=1;rounded=0;exitX=0.497;exitY=1.033;exitDx=0;exitDy=0;exitPerimeter=0;entryX=0.5;entryY=0;entryDx=0;entryDy=0;" parent="WIyWlLk6GJQsqaUBKTNV-1" source="EFok8nTwk4CtRk3BqSgn-161" target="EFok8nTwk4CtRk3BqSgn-162" edge="1">
          <mxGeometry width="160" relative="1" as="geometry">
            <mxPoint x="960" y="150" as="sourcePoint" />
            <mxPoint x="1120" y="150" as="targetPoint" />
          </mxGeometry>
        </mxCell>
      </root>
    </mxGraphModel>
  </diagram>
</mxfile>
